<svg width="80" height="80" viewBox="0 0 80 80" fill="none" xmlns="http://www.w3.org/2000/svg">
<circle cx="40" cy="40" r="40" fill="white"/>
<path d="M30.3222 30.9393L46.9234 47.5405L21.4705 64.0275L14 56.557L30.3222 30.9393Z" stroke="#063684" stroke-width="5" stroke-linecap="round" stroke-linejoin="round"/>
<path d="M54.949 38.091C53.6385 39.4017 52.7747 39.4118 51.4742 39.8587C51.4339 43.3134 51.4819 46.7898 47.098 47.6484L30.0261 30.5764C30.0261 30.5764 30.0146 28.8842 31.7512 27.9994C32.3628 27.7129 33.6028 27.8484 34.3417 27.9687C36.0794 24.2309 38.7105 23.5999 41.6358 24.8084C43.0389 22.6859 46.5037 21.782 49.0847 22.6155C51.6656 23.4489 51.6455 25.1762 53.3627 26.0197C55.08 26.8632 56.8275 25.1157 56.8375 24.252C56.8476 23.3884 56.6961 21.7363 57.8604 22.0358C58.5711 22.2277 59.143 22.9193 59.832 25.7972C60.2167 27.4127 59.993 29.8025 58.6126 31.2696C57.7655 32.1699 55.8735 32.6405 55.0096 32.909C55.0919 33.1444 56.2597 36.7804 54.949 38.091Z" stroke="#063684" stroke-width="5" stroke-linecap="round" stroke-linejoin="round"/>
<path d="M55.0092 32.9084C51.5342 34.676 48.9533 33.8425 46.3925 31.2817" stroke="#063684" stroke-width="5" stroke-linecap="round" stroke-linejoin="round"/>
<circle cx="59.5" cy="22.5" r="5.5" fill="#F00ACA"/>
<circle cx="59.5" cy="22.5" r="5.5" stroke="#063684"/>
</svg>
