<svg width="183" height="54" viewBox="0 0 183 54" fill="none" xmlns="http://www.w3.org/2000/svg">
<g filter="url(#filter0_d_79_2)">
<circle cx="27" cy="25" r="23.5" fill="white" stroke="#063684" stroke-width="3"/>
<path d="M22.6611 19.9697L30.9617 28.2703L18.2353 36.5138L14.5 32.7785L22.6611 19.9697Z" stroke="#063684" stroke-width="1.5" stroke-linecap="round" stroke-linejoin="round"/>
<path d="M34.9744 23.5455C34.3191 24.2008 33.8872 24.2059 33.237 24.4294C33.2168 26.1567 33.2408 27.8949 31.0489 28.3242L22.5129 19.7882C22.5129 19.7882 22.5072 18.9421 23.3755 18.4997C23.6813 18.3564 24.3013 18.4242 24.6707 18.4843C25.5396 16.6154 26.8551 16.3 28.3178 16.9042C29.0193 15.843 30.7517 15.391 32.0422 15.8077C33.3327 16.2244 33.3226 17.0881 34.1812 17.5098C35.0399 17.9316 35.9136 17.0579 35.9186 16.626C35.9237 16.1942 35.8479 15.3681 36.4301 15.5179C36.7854 15.6138 37.0714 15.9597 37.4159 17.3986C37.6082 18.2064 37.4964 19.4013 36.8062 20.1348C36.3826 20.585 35.4366 20.8202 35.0047 20.9545C35.0458 21.0722 35.6297 22.8902 34.9744 23.5455Z" stroke="#063684" stroke-width="1.5" stroke-linecap="round" stroke-linejoin="round"/>
<path d="M35.0046 20.9542C33.2672 21.838 31.9767 21.4213 30.6963 20.1409" stroke="#063684" stroke-width="1.5" stroke-linecap="round" stroke-linejoin="round"/>
<circle cx="37.25" cy="15.7499" r="2" fill="#F00ACA" stroke="#063684" stroke-width="1.5"/>
</g>
<path d="M70.9045 16.492C70.9232 16.2867 70.9419 15.9973 70.9605 15.624V15.316C70.9605 15.2973 71.0819 15.2787 71.3245 15.26C71.5859 15.2227 71.8939 15.204 72.2485 15.204C72.6219 15.1853 73.0139 15.1853 73.4245 15.204C73.8352 15.204 74.1899 15.232 74.4885 15.288V17.136C74.4885 20.2533 74.5352 23.3333 74.6285 26.376C74.7219 29.4187 74.7312 32.284 74.6565 34.972C74.0779 34.972 73.4432 34.9813 72.7525 35C72.0619 35.0373 71.4365 35.0187 70.8765 34.944C70.8579 34.9067 70.8485 34.8413 70.8485 34.748C70.8485 34.5613 70.8392 34.412 70.8205 34.3C70.8205 34.188 70.8205 34.0293 70.8205 33.824C70.7832 33.7307 70.7365 33.6653 70.6805 33.628C70.6432 33.572 70.5965 33.6 70.5405 33.712C70.2605 34.272 69.8872 34.636 69.4205 34.804C68.9539 34.9533 68.4592 34.9907 67.9365 34.916C66.8725 34.8413 66.0325 34.5707 65.4165 34.104C64.8005 33.6187 64.3339 33.012 64.0165 32.284C63.7179 31.5373 63.5125 30.7067 63.4005 29.792C63.3072 28.8773 63.2512 27.9533 63.2325 27.02C63.2325 26.3667 63.2699 25.732 63.3445 25.116C63.4379 24.5 63.5685 23.94 63.7365 23.436C63.9232 22.9133 64.1565 22.4747 64.4365 22.12C64.7352 21.7467 65.0899 21.4853 65.5005 21.336C66.0045 21.1493 66.5552 21.0373 67.1525 21C67.7685 20.944 68.3472 20.944 68.8885 21C69.4299 21.0373 69.8872 21.1213 70.2605 21.252C70.6339 21.3827 70.8392 21.532 70.8765 21.7C70.8579 20.8227 70.8485 20.1133 70.8485 19.572C70.8485 19.0307 70.8485 18.6013 70.8485 18.284C70.8485 17.948 70.8485 17.696 70.8485 17.528C70.8672 17.3413 70.8765 17.1733 70.8765 17.024C70.8952 16.856 70.9045 16.6787 70.9045 16.492ZM67.4325 24.696C66.9845 25.032 66.7139 25.5267 66.6205 26.18C66.5272 26.4413 66.4712 26.712 66.4525 26.992C66.4339 27.272 66.4245 27.5427 66.4245 27.804C66.4245 28.2707 66.4805 28.728 66.5925 29.176C66.7045 29.6053 66.8725 29.9973 67.0965 30.352C67.3205 30.688 67.5912 30.9587 67.9085 31.164C68.2259 31.3693 68.5805 31.472 68.9725 31.472C69.4392 31.472 69.8032 31.3693 70.0645 31.164C70.3445 30.9587 70.5499 30.6787 70.6805 30.324C70.8299 29.9693 70.9139 29.5493 70.9325 29.064C70.9699 28.56 70.9885 28.0093 70.9885 27.412C70.9885 26.684 70.9699 26.1147 70.9325 25.704C70.9139 25.2747 70.8485 24.948 70.7365 24.724C70.6245 24.5 70.4472 24.36 70.2045 24.304C69.9805 24.2293 69.6725 24.192 69.2805 24.192C68.5152 24.192 67.8992 24.36 67.4325 24.696ZM80.8695 28.056C80.4588 28.0373 80.1601 28.0093 79.9735 27.972V28.476C79.9921 29.036 80.0108 29.4933 80.0295 29.848C80.0668 30.2027 80.1881 30.548 80.3935 30.884C80.6175 31.3133 80.9348 31.6307 81.3455 31.836C81.7561 32.0413 82.1575 32.1067 82.5495 32.032C82.9415 31.9573 83.2681 31.7333 83.5295 31.36C83.8095 30.968 83.9308 30.3893 83.8935 29.624C84.0801 29.6427 84.3321 29.652 84.6495 29.652C84.9668 29.6333 85.2935 29.6147 85.6295 29.596C85.9841 29.5773 86.3201 29.5773 86.6375 29.596C86.9548 29.596 87.2161 29.624 87.4215 29.68C87.3841 30.1653 87.3468 30.6413 87.3095 31.108C87.2721 31.5747 87.2255 32.0133 87.1695 32.424C87.1135 32.816 87.0388 33.1613 86.9455 33.46C86.8708 33.74 86.7681 33.936 86.6375 34.048C86.3201 34.496 85.9095 34.8133 85.4055 35C84.9015 35.1867 84.3508 35.2987 83.7535 35.336C83.1561 35.3733 82.5401 35.3733 81.9055 35.336C81.2895 35.2987 80.7201 35.28 80.1975 35.28C79.6748 35.2053 79.1895 35.0373 78.7415 34.776C78.2375 34.4213 77.8175 33.964 77.4815 33.404C77.1455 32.8253 76.8748 32.2 76.6695 31.528C76.4641 30.8373 76.3241 30.1093 76.2495 29.344C76.1748 28.5787 76.1561 27.8133 76.1935 27.048C76.2495 26.3573 76.3055 25.6947 76.3615 25.06C76.4361 24.4067 76.5855 23.772 76.8095 23.156C77.0521 22.6147 77.4255 22.1573 77.9295 21.784C78.4335 21.392 79.0028 21.1027 79.6375 20.916C80.2721 20.7107 80.9441 20.5987 81.6535 20.58C82.3628 20.5613 83.0535 20.636 83.7255 20.804C84.5841 20.9533 85.2748 21.252 85.7975 21.7C86.3201 22.148 86.7121 22.6893 86.9735 23.324C87.2535 23.9587 87.4215 24.6587 87.4775 25.424C87.5335 26.1893 87.5335 26.964 87.4775 27.748C87.3468 27.7853 87.0948 27.8227 86.7215 27.86C86.3668 27.8973 85.9375 27.9347 85.4335 27.972C84.9481 28.0093 84.4255 28.0373 83.8655 28.056C83.3055 28.0747 82.7641 28.084 82.2415 28.084C81.7375 28.084 81.2801 28.0747 80.8695 28.056ZM84.1455 24.388C83.9588 24.052 83.6975 23.8 83.3615 23.632C83.2121 23.5387 83.0628 23.4733 82.9135 23.436C82.7641 23.38 82.5868 23.352 82.3815 23.352C81.9335 23.352 81.5695 23.3987 81.2895 23.492C81.0095 23.5853 80.7855 23.716 80.6175 23.884C80.4495 24.052 80.3188 24.248 80.2255 24.472C80.1508 24.696 80.0948 24.9293 80.0575 25.172C80.0201 25.3773 80.0015 25.5267 80.0015 25.62C80.0201 25.6947 80.1135 25.7507 80.2815 25.788C80.4495 25.8067 80.7108 25.816 81.0655 25.816C81.4388 25.7973 81.9801 25.788 82.6895 25.788C83.1748 25.788 83.5388 25.7973 83.7815 25.816C84.0241 25.8347 84.1921 25.844 84.2855 25.844C84.3975 25.8253 84.4535 25.7973 84.4535 25.76C84.4535 25.704 84.4535 25.6013 84.4535 25.452C84.4535 25.0787 84.3508 24.724 84.1455 24.388ZM99.5829 21.056C99.9189 21.0373 100.124 21.0467 100.199 21.084C100.199 21.7933 100.18 22.4467 100.143 23.044C100.106 23.6227 100.124 24.22 100.199 24.836C99.2469 25.8627 98.2109 26.8987 97.0909 27.944C95.9709 28.9707 94.9349 30.016 93.9829 31.08C94.9162 31.0053 95.9055 30.996 96.9509 31.052C98.0149 31.108 99.0509 31.0613 100.059 30.912C100.059 31.5093 100.068 32.144 100.087 32.816C100.106 33.488 100.115 34.1507 100.115 34.804C99.2562 34.8227 98.3415 34.8413 97.3709 34.86C96.4189 34.8787 95.4482 34.8973 94.4589 34.916C93.4695 34.9347 92.4895 34.9533 91.5189 34.972C90.5482 34.972 89.6149 34.972 88.7189 34.972C88.7375 34.4307 88.7375 33.992 88.7189 33.656C88.7189 33.32 88.7095 33.0307 88.6909 32.788C88.6722 32.5453 88.6535 32.3213 88.6349 32.116C88.6349 31.9107 88.6442 31.668 88.6629 31.388C89.1109 30.8093 89.6055 30.2493 90.1469 29.708C90.6882 29.148 91.2482 28.6067 91.8269 28.084C92.4055 27.5427 92.9749 27.0107 93.5349 26.488C94.0949 25.9467 94.6082 25.396 95.0749 24.836C94.5895 24.8547 94.0669 24.8733 93.5069 24.892C92.9469 24.9107 92.3869 24.9387 91.8269 24.976C91.2669 25.0133 90.7255 25.06 90.2029 25.116C89.6989 25.172 89.2415 25.228 88.8309 25.284C88.7935 24.78 88.7749 24.3507 88.7749 23.996C88.7749 23.6413 88.7749 23.324 88.7749 23.044C88.7935 22.7453 88.8122 22.4467 88.8309 22.148C88.8495 21.8493 88.8495 21.4947 88.8309 21.084C90.3429 21.084 91.7615 21.084 93.0869 21.084C94.4309 21.0653 95.6069 21.056 96.6149 21.056C96.7642 21.0933 97.0162 21.112 97.3709 21.112C97.7442 21.0933 98.1269 21.084 98.5189 21.084C98.9109 21.0653 99.2655 21.056 99.5829 21.056ZM106.08 28.056C105.67 28.0373 105.371 28.0093 105.184 27.972V28.476C105.203 29.036 105.222 29.4933 105.24 29.848C105.278 30.2027 105.399 30.548 105.604 30.884C105.828 31.3133 106.146 31.6307 106.556 31.836C106.967 32.0413 107.368 32.1067 107.76 32.032C108.152 31.9573 108.479 31.7333 108.74 31.36C109.02 30.968 109.142 30.3893 109.104 29.624C109.291 29.6427 109.543 29.652 109.86 29.652C110.178 29.6333 110.504 29.6147 110.84 29.596C111.195 29.5773 111.531 29.5773 111.848 29.596C112.166 29.596 112.427 29.624 112.632 29.68C112.595 30.1653 112.558 30.6413 112.52 31.108C112.483 31.5747 112.436 32.0133 112.38 32.424C112.324 32.816 112.25 33.1613 112.156 33.46C112.082 33.74 111.979 33.936 111.848 34.048C111.531 34.496 111.12 34.8133 110.616 35C110.112 35.1867 109.562 35.2987 108.964 35.336C108.367 35.3733 107.751 35.3733 107.116 35.336C106.5 35.2987 105.931 35.28 105.408 35.28C104.886 35.2053 104.4 35.0373 103.952 34.776C103.448 34.4213 103.028 33.964 102.692 33.404C102.356 32.8253 102.086 32.2 101.88 31.528C101.675 30.8373 101.535 30.1093 101.46 29.344C101.386 28.5787 101.367 27.8133 101.404 27.048C101.46 26.3573 101.516 25.6947 101.572 25.06C101.647 24.4067 101.796 23.772 102.02 23.156C102.263 22.6147 102.636 22.1573 103.14 21.784C103.644 21.392 104.214 21.1027 104.848 20.916C105.483 20.7107 106.155 20.5987 106.864 20.58C107.574 20.5613 108.264 20.636 108.936 20.804C109.795 20.9533 110.486 21.252 111.008 21.7C111.531 22.148 111.923 22.6893 112.184 23.324C112.464 23.9587 112.632 24.6587 112.688 25.424C112.744 26.1893 112.744 26.964 112.688 27.748C112.558 27.7853 112.306 27.8227 111.932 27.86C111.578 27.8973 111.148 27.9347 110.644 27.972C110.159 28.0093 109.636 28.0373 109.076 28.056C108.516 28.0747 107.975 28.084 107.452 28.084C106.948 28.084 106.491 28.0747 106.08 28.056ZM109.356 24.388C109.17 24.052 108.908 23.8 108.572 23.632C108.423 23.5387 108.274 23.4733 108.124 23.436C107.975 23.38 107.798 23.352 107.592 23.352C107.144 23.352 106.78 23.3987 106.5 23.492C106.22 23.5853 105.996 23.716 105.828 23.884C105.66 24.052 105.53 24.248 105.436 24.472C105.362 24.696 105.306 24.9293 105.268 25.172C105.231 25.3773 105.212 25.5267 105.212 25.62C105.231 25.6947 105.324 25.7507 105.492 25.788C105.66 25.8067 105.922 25.816 106.276 25.816C106.65 25.7973 107.191 25.788 107.9 25.788C108.386 25.788 108.75 25.7973 108.992 25.816C109.235 25.8347 109.403 25.844 109.496 25.844C109.608 25.8253 109.664 25.7973 109.664 25.76C109.664 25.704 109.664 25.6013 109.664 25.452C109.664 25.0787 109.562 24.724 109.356 24.388ZM117.934 21.812C117.934 22.0173 117.943 22.2507 117.962 22.512C118.055 22.456 118.167 22.3907 118.298 22.316C118.447 22.2413 118.568 22.1667 118.662 22.092C119.054 21.812 119.492 21.588 119.978 21.42C120.463 21.252 120.958 21.1587 121.462 21.14C121.984 21.1213 122.488 21.1773 122.974 21.308C123.459 21.4387 123.898 21.672 124.29 22.008C124.383 22.1013 124.476 22.26 124.57 22.484C124.663 22.428 124.775 22.372 124.906 22.316C125.036 22.2413 125.148 22.1667 125.242 22.092C125.634 21.812 126.072 21.588 126.558 21.42C127.043 21.252 127.538 21.1587 128.042 21.14C128.564 21.1213 129.068 21.1773 129.554 21.308C130.039 21.4387 130.478 21.672 130.87 22.008C131.056 22.176 131.196 22.5307 131.29 23.072C131.402 23.5947 131.467 24.2293 131.486 24.976C131.523 25.7227 131.532 26.544 131.514 27.44C131.514 28.3173 131.504 29.2133 131.486 30.128C131.467 31.024 131.448 31.892 131.43 32.732C131.411 33.572 131.42 34.3093 131.458 34.944C130.804 35.0373 130.216 35.0747 129.694 35.056C129.19 35.056 128.611 35.056 127.958 35.056C127.92 34.6267 127.902 34.1413 127.902 33.6C127.902 33.0587 127.902 32.4987 127.902 31.92C127.92 31.3413 127.92 30.7627 127.902 30.184C127.902 29.6053 127.883 29.064 127.846 28.56C127.827 28.336 127.808 28.0933 127.79 27.832C127.771 27.552 127.734 27.2813 127.678 27.02C127.64 26.7587 127.575 26.5253 127.482 26.32C127.407 26.1147 127.295 25.956 127.146 25.844C127.127 25.8253 127.108 25.816 127.09 25.816C127.071 25.816 127.052 25.8067 127.034 25.788C126.922 25.732 126.782 25.6853 126.614 25.648C126.446 25.6107 126.259 25.592 126.054 25.592C125.867 25.592 125.671 25.6293 125.466 25.704C125.279 25.76 125.102 25.8533 124.934 25.984C124.952 26.712 124.952 27.4867 124.934 28.308C124.915 29.1107 124.896 29.9133 124.878 30.716C124.859 31.5 124.84 32.2653 124.822 33.012C124.822 33.74 124.84 34.384 124.878 34.944C124.224 35.0373 123.636 35.0747 123.114 35.056C122.61 35.056 122.031 35.056 121.378 35.056C121.34 34.6267 121.322 34.1413 121.322 33.6C121.322 33.0587 121.322 32.4987 121.322 31.92C121.34 31.3413 121.34 30.7627 121.322 30.184C121.322 29.6053 121.303 29.064 121.266 28.56C121.247 28.336 121.228 28.0933 121.21 27.832C121.191 27.552 121.154 27.2813 121.098 27.02C121.06 26.7587 120.995 26.5253 120.902 26.32C120.827 26.1147 120.715 25.956 120.566 25.844C120.547 25.8253 120.528 25.816 120.51 25.816C120.491 25.816 120.472 25.8067 120.454 25.788C120.304 25.7133 120.08 25.6573 119.782 25.62C119.502 25.564 119.222 25.5827 118.942 25.676C118.662 25.7507 118.41 25.9187 118.186 26.18C117.962 26.4227 117.831 26.796 117.794 27.3C117.756 27.9533 117.747 28.5973 117.766 29.232C117.784 29.848 117.803 30.4733 117.822 31.108C117.859 31.724 117.878 32.34 117.878 32.956C117.878 33.572 117.84 34.188 117.766 34.804V34.916C117.448 35.0093 117.168 35.0653 116.926 35.084C116.702 35.1027 116.468 35.1027 116.226 35.084C115.983 35.084 115.712 35.0747 115.414 35.056C115.115 35.0373 114.742 35.0467 114.294 35.084C114.294 32.788 114.266 30.492 114.21 28.196C114.172 25.9 114.191 23.52 114.266 21.056C114.49 21.0747 114.676 21.0933 114.826 21.112C114.975 21.112 115.115 21.112 115.246 21.112C115.376 21.112 115.516 21.112 115.666 21.112C115.815 21.0933 116.002 21.0747 116.226 21.056C116.3 21.056 116.431 21.0467 116.618 21.028C116.804 20.9907 116.991 20.9627 117.178 20.944C117.364 20.9253 117.532 20.9253 117.682 20.944C117.831 20.944 117.906 20.972 117.906 21.028C117.943 21.3453 117.952 21.6067 117.934 21.812ZM136.682 15.26C136.944 15.2787 137.074 15.2973 137.074 15.316V15.624C137.093 15.9973 137.102 16.2867 137.102 16.492C137.121 16.6787 137.13 16.856 137.13 17.024C137.149 17.1733 137.158 17.3413 137.158 17.528C137.177 17.696 137.186 17.948 137.186 18.284C137.186 18.6013 137.186 19.0307 137.186 19.572C137.186 20.1133 137.177 20.8227 137.158 21.7C137.196 21.532 137.401 21.3827 137.774 21.252C138.148 21.1213 138.605 21.0373 139.146 21C139.688 20.944 140.257 20.944 140.854 21C141.47 21.0373 142.03 21.1493 142.534 21.336C142.945 21.4853 143.29 21.7467 143.57 22.12C143.869 22.4747 144.102 22.9133 144.27 23.436C144.457 23.94 144.588 24.5 144.662 25.116C144.756 25.732 144.802 26.3667 144.802 27.02C144.765 27.9533 144.7 28.8773 144.606 29.792C144.513 30.7067 144.308 31.5373 143.99 32.284C143.692 33.012 143.234 33.6187 142.618 34.104C142.002 34.5707 141.162 34.8413 140.098 34.916C139.576 34.9907 139.081 34.9533 138.614 34.804C138.148 34.636 137.774 34.272 137.494 33.712C137.438 33.6 137.382 33.572 137.326 33.628C137.289 33.6653 137.252 33.7307 137.214 33.824C137.214 34.0293 137.205 34.188 137.186 34.3C137.186 34.412 137.186 34.5613 137.186 34.748C137.186 34.8413 137.177 34.9067 137.158 34.944C136.598 35.0187 135.973 35.0373 135.282 35C134.592 34.9813 133.957 34.972 133.378 34.972C133.341 33.628 133.322 32.2373 133.322 30.8C133.341 29.344 133.36 27.8693 133.378 26.376C133.416 24.864 133.453 23.3333 133.49 21.784C133.528 20.2347 133.546 18.6853 133.546 17.136V15.288C133.845 15.232 134.2 15.204 134.61 15.204C135.021 15.1853 135.404 15.1853 135.758 15.204C136.132 15.204 136.44 15.2227 136.682 15.26ZM141.582 26.992C141.564 26.712 141.508 26.4413 141.414 26.18C141.321 25.5267 141.041 25.032 140.574 24.696C140.126 24.36 139.52 24.192 138.754 24.192C138.362 24.192 138.045 24.2293 137.802 24.304C137.578 24.36 137.41 24.5 137.298 24.724C137.186 24.948 137.112 25.2747 137.074 25.704C137.056 26.1147 137.046 26.684 137.046 27.412C137.046 28.0093 137.056 28.56 137.074 29.064C137.112 29.5493 137.196 29.9693 137.326 30.324C137.476 30.6787 137.681 30.9587 137.942 31.164C138.204 31.3693 138.577 31.472 139.062 31.472C139.454 31.472 139.809 31.3693 140.126 31.164C140.444 30.9587 140.714 30.688 140.938 30.352C141.162 29.9973 141.33 29.6053 141.442 29.176C141.554 28.728 141.61 28.2707 141.61 27.804C141.61 27.5427 141.601 27.272 141.582 26.992ZM156.083 20.972C156.549 20.9907 157.081 21.0187 157.679 21.056C157.697 21.168 157.707 21.28 157.707 21.392C157.725 21.504 157.735 21.616 157.735 21.728V22.008C157.679 24.024 157.688 26.012 157.763 27.972C157.837 29.9133 157.809 31.8827 157.679 33.88C157.679 34.1227 157.669 34.3653 157.651 34.608C157.651 34.8507 157.539 34.9907 157.315 35.028H156.979C156.68 35.028 156.372 35.0187 156.055 35C155.756 34.9627 155.457 34.944 155.159 34.944C154.953 34.944 154.748 34.9627 154.543 35C154.356 35.0187 154.16 35.028 153.955 35.028C153.824 34.9907 153.731 34.916 153.675 34.804C153.637 34.692 153.619 34.5613 153.619 34.412C153.619 34.2067 153.637 34.0387 153.675 33.908C153.712 33.7773 153.731 33.6187 153.731 33.432C153.283 33.88 152.713 34.2627 152.023 34.58C151.351 34.8973 150.688 35.056 150.035 35.056C149.307 35.056 148.681 34.804 148.159 34.3C147.655 33.796 147.235 33.1707 146.899 32.424C146.563 31.6773 146.311 30.8653 146.143 29.988C145.993 29.1107 145.919 28.2987 145.919 27.552C145.919 26.6187 146.04 25.76 146.283 24.976C146.525 24.192 146.852 23.52 147.263 22.96C147.692 22.3813 148.196 21.9333 148.775 21.616C149.353 21.28 149.969 21.1027 150.623 21.084C150.959 21.084 151.267 21.0933 151.547 21.112C151.845 21.112 152.116 21.1587 152.359 21.252C152.601 21.3267 152.816 21.4573 153.003 21.644C153.189 21.812 153.348 22.0547 153.479 22.372C153.46 22.0733 153.469 21.8213 153.507 21.616C153.563 21.392 153.591 21.168 153.591 20.944C153.591 20.9253 153.647 20.916 153.759 20.916C153.889 20.8973 154.029 20.8973 154.179 20.916C154.328 20.916 154.477 20.916 154.627 20.916C154.776 20.916 154.879 20.916 154.935 20.916C155.252 20.9347 155.635 20.9533 156.083 20.972ZM150.315 25.396C149.885 25.7507 149.624 26.1613 149.531 26.628C149.456 26.8707 149.409 27.1227 149.391 27.384C149.372 27.6267 149.363 27.8693 149.363 28.112C149.363 28.952 149.577 29.6707 150.007 30.268C150.455 30.8467 151.071 31.136 151.855 31.136C152.321 31.136 152.667 31.0613 152.891 30.912C153.133 30.744 153.301 30.52 153.395 30.24C153.507 29.9413 153.563 29.5867 153.563 29.176C153.581 28.7467 153.591 28.2707 153.591 27.748C153.591 27.0947 153.581 26.5813 153.563 26.208C153.563 25.816 153.516 25.5173 153.423 25.312C153.348 25.1067 153.208 24.976 153.003 24.92C152.816 24.864 152.527 24.836 152.135 24.836C151.369 24.836 150.763 25.0227 150.315 25.396Z" fill="#063684"/>
<path d="M162.959 35H162.903L159.739 34.972H159.655C159.618 34.7667 159.59 34.5053 159.571 34.188C159.571 33.8707 159.571 33.5533 159.571 33.236C159.59 32.9187 159.599 32.62 159.599 32.34C159.618 32.06 159.627 31.8547 159.627 31.724C159.814 31.6493 160.075 31.5933 160.411 31.556C160.766 31.5187 161.12 31.5 161.475 31.5C161.83 31.5 162.156 31.5187 162.455 31.556C162.772 31.5747 162.996 31.612 163.127 31.668C163.127 31.6867 163.118 31.8453 163.099 32.144C163.08 32.424 163.062 32.7507 163.043 33.124C163.024 33.4973 163.006 33.8613 162.987 34.216C162.968 34.5707 162.959 34.8133 162.959 34.944V34.972V35ZM166.892 20.916C167.321 20.9347 167.834 20.9347 168.432 20.916H168.908V21C168.889 23.2587 168.842 25.564 168.768 27.916C168.712 30.268 168.749 32.5733 168.88 34.832C168.786 34.944 168.553 35 168.18 35C167.806 35.0187 167.396 35.0187 166.948 35C166.518 35 166.108 34.9907 165.716 34.972C165.324 34.9533 165.062 34.9627 164.932 35C165.025 33.824 165.062 32.6293 165.044 31.416C165.044 30.2027 165.025 28.9987 164.988 27.804C164.95 26.6093 164.932 25.4333 164.932 24.276C164.932 23.1 164.988 21.9613 165.1 20.86V20.832C165.174 20.8133 165.296 20.8133 165.464 20.832C165.65 20.8507 165.79 20.86 165.884 20.86C166.126 20.8787 166.462 20.8973 166.892 20.916ZM165.016 16.996C164.978 16.3987 164.969 15.6707 164.988 14.812L168.796 14.896C168.796 15.008 168.796 15.2133 168.796 15.512C168.814 15.792 168.824 16.1093 168.824 16.464C168.842 16.8 168.852 17.1547 168.852 17.528C168.87 17.8827 168.88 18.2 168.88 18.48C168.805 18.592 168.628 18.6667 168.348 18.704C168.086 18.7413 167.769 18.76 167.396 18.76C167.041 18.7413 166.658 18.7227 166.248 18.704C165.837 18.6667 165.454 18.6573 165.1 18.676C165.1 18.1347 165.072 17.5747 165.016 16.996ZM170.813 23.072C170.925 22.7173 171.009 22.4373 171.065 22.232C171.195 21.952 171.401 21.7093 171.681 21.504C171.979 21.2987 172.315 21.1307 172.689 21C173.081 20.8507 173.491 20.748 173.921 20.692C174.369 20.636 174.817 20.608 175.265 20.608C175.638 20.6453 175.993 20.6547 176.329 20.636C176.683 20.5987 177.057 20.5987 177.449 20.636C178.046 20.6733 178.615 20.7947 179.157 21C179.698 21.1867 180.165 21.4667 180.557 21.84C180.818 22.008 181.023 22.2787 181.173 22.652C181.322 23.0253 181.434 23.464 181.509 23.968C181.583 24.4533 181.63 24.9947 181.649 25.592C181.667 26.1707 181.686 26.768 181.705 27.384C181.686 27.9253 181.658 28.5413 181.621 29.232C181.602 29.9227 181.555 30.5853 181.481 31.22C181.425 31.8547 181.341 32.424 181.229 32.928C181.135 33.432 180.995 33.7773 180.809 33.964C180.491 34.412 180.071 34.7293 179.549 34.916C179.045 35.1027 178.494 35.2147 177.897 35.252C177.299 35.308 176.683 35.308 176.049 35.252C175.414 35.2147 174.835 35.196 174.313 35.196C173.361 35.028 172.558 34.6173 171.905 33.964C171.401 33.516 171.055 32.956 170.869 32.284C170.682 31.612 170.57 30.912 170.533 30.184C170.495 29.4373 170.486 28.6907 170.505 27.944C170.542 27.1973 170.533 26.516 170.477 25.9C170.477 25.564 170.486 25.2373 170.505 24.92C170.523 24.584 170.561 24.2387 170.617 23.884C170.635 23.6787 170.701 23.408 170.813 23.072ZM175.517 24.92C175.125 25.032 174.807 25.2373 174.565 25.536C174.453 25.6107 174.369 25.7973 174.313 26.096C174.238 26.6933 174.201 27.2907 174.201 27.888C174.201 28.4667 174.182 29.0827 174.145 29.736C174.126 30.1653 174.238 30.5013 174.481 30.744C174.723 30.968 175.013 31.1267 175.349 31.22C175.703 31.2947 176.067 31.3133 176.441 31.276C176.814 31.22 177.122 31.1267 177.365 30.996C177.682 30.8467 177.897 30.5387 178.009 30.072C178.083 29.4747 178.139 28.8773 178.177 28.28C178.233 27.664 178.205 27.0853 178.093 26.544C177.999 25.8907 177.729 25.4147 177.281 25.116C176.833 24.8173 176.245 24.752 175.517 24.92Z" fill="#F00ACA"/>
<defs>
<filter id="filter0_d_79_2" x="0" y="0" width="54" height="54" filterUnits="userSpaceOnUse" color-interpolation-filters="sRGB">
<feFlood flood-opacity="0" result="BackgroundImageFix"/>
<feColorMatrix in="SourceAlpha" type="matrix" values="0 0 0 0 0 0 0 0 0 0 0 0 0 0 0 0 0 0 127 0" result="hardAlpha"/>
<feOffset dy="2"/>
<feGaussianBlur stdDeviation="1"/>
<feComposite in2="hardAlpha" operator="out"/>
<feColorMatrix type="matrix" values="0 0 0 0 0 0 0 0 0 0 0 0 0 0 0 0 0 0 0.25 0"/>
<feBlend mode="normal" in2="BackgroundImageFix" result="effect1_dropShadow_79_2"/>
<feBlend mode="normal" in="SourceGraphic" in2="effect1_dropShadow_79_2" result="shape"/>
</filter>
</defs>
</svg>
