<svg width="800" height="132" viewBox="0 0 800 132" fill="none" xmlns="http://www.w3.org/2000/svg">
<rect width="800" height="132" rx="25" fill="#DCEBFE"/>
<path d="M225.076 45C226.436 45 227.776 45.06 229.096 45.18L229.156 45.24C228.556 52.16 227.876 59.06 227.116 65.94C226.396 72.82 225.756 79.74 225.196 86.7C224.916 86.78 224.596 86.82 224.236 86.82C223.916 86.82 223.556 86.82 223.156 86.82H220.996H220.276C219.916 86.34 219.596 85.66 219.316 84.78C219.076 83.86 218.816 82.9 218.536 81.9C218.256 80.86 217.976 79.86 217.696 78.9C217.416 77.94 217.096 77.18 216.736 76.62H216.676C216.316 76.98 215.996 77.62 215.716 78.54C215.476 79.42 215.236 80.38 214.996 81.42C214.756 82.42 214.516 83.4 214.276 84.36C214.036 85.32 213.756 86.06 213.436 86.58C212.916 86.66 212.436 86.74 211.996 86.82C211.556 86.86 211.056 86.88 210.496 86.88C209.856 86.88 209.096 86.82 208.216 86.7H208.156C207.196 79.86 206.256 72.98 205.336 66.06C204.416 59.14 203.896 52.22 203.776 45.3V45.24C204.376 45.16 204.996 45.1 205.636 45.06C206.316 44.98 206.996 44.94 207.676 44.94C208.476 44.94 209.276 44.96 210.076 45C210.876 45.04 211.636 45.08 212.356 45.12C212.516 46.88 212.596 48.86 212.596 51.06C212.596 53.26 212.596 55.48 212.596 57.72C212.596 59.96 212.656 62.16 212.776 64.32C212.896 66.48 213.176 68.42 213.616 70.14C214.136 68.34 214.596 66.58 214.996 64.86C215.436 63.1 215.876 61.32 216.316 59.52C216.356 59.44 216.376 59.38 216.376 59.34C216.376 59.3 216.396 59.26 216.436 59.22C216.596 59.34 216.816 59.92 217.096 60.96C217.416 61.96 217.716 63.1 217.996 64.38C218.316 65.66 218.616 66.92 218.896 68.16C219.216 69.4 219.496 70.32 219.736 70.92C219.896 69.2 220.016 67.24 220.096 65.04C220.176 62.8 220.236 60.52 220.276 58.2C220.356 55.88 220.416 53.62 220.456 51.42C220.536 49.18 220.656 47.18 220.816 45.42V45.36C221.496 45.2 222.196 45.1 222.916 45.06C223.636 45.02 224.356 45 225.076 45ZM240.923 72.12C240.043 72.08 239.403 72.02 239.003 71.94V73.02C239.043 74.22 239.083 75.2 239.123 75.96C239.203 76.72 239.463 77.46 239.903 78.18C240.383 79.1 241.063 79.78 241.943 80.22C242.823 80.66 243.683 80.8 244.523 80.64C245.363 80.48 246.063 80 246.623 79.2C247.223 78.36 247.483 77.12 247.403 75.48C247.803 75.52 248.343 75.54 249.023 75.54C249.703 75.5 250.403 75.46 251.123 75.42C251.883 75.38 252.603 75.38 253.283 75.42C253.963 75.42 254.523 75.48 254.963 75.6C254.883 76.64 254.803 77.66 254.723 78.66C254.643 79.66 254.543 80.6 254.423 81.48C254.303 82.32 254.143 83.06 253.943 83.7C253.783 84.3 253.563 84.72 253.283 84.96C252.603 85.92 251.723 86.6 250.643 87C249.563 87.4 248.383 87.64 247.103 87.72C245.823 87.8 244.503 87.8 243.143 87.72C241.823 87.64 240.603 87.6 239.483 87.6C238.363 87.44 237.323 87.08 236.363 86.52C235.283 85.76 234.383 84.78 233.663 83.58C232.943 82.34 232.363 81 231.923 79.56C231.483 78.08 231.183 76.52 231.023 74.88C230.863 73.24 230.823 71.6 230.903 69.96C231.023 68.48 231.143 67.06 231.263 65.7C231.423 64.3 231.743 62.94 232.223 61.62C232.743 60.46 233.543 59.48 234.623 58.68C235.703 57.84 236.923 57.22 238.283 56.82C239.643 56.38 241.083 56.14 242.603 56.1C244.123 56.06 245.603 56.22 247.043 56.58C248.883 56.9 250.363 57.54 251.483 58.5C252.603 59.46 253.443 60.62 254.003 61.98C254.603 63.34 254.963 64.84 255.083 66.48C255.203 68.12 255.203 69.78 255.083 71.46C254.803 71.54 254.263 71.62 253.463 71.7C252.703 71.78 251.783 71.86 250.703 71.94C249.663 72.02 248.543 72.08 247.343 72.12C246.143 72.16 244.983 72.18 243.863 72.18C242.783 72.18 241.803 72.16 240.923 72.12ZM247.943 64.26C247.543 63.54 246.983 63 246.263 62.64C245.943 62.44 245.623 62.3 245.303 62.22C244.983 62.1 244.603 62.04 244.163 62.04C243.203 62.04 242.423 62.14 241.823 62.34C241.223 62.54 240.743 62.82 240.383 63.18C240.023 63.54 239.743 63.96 239.543 64.44C239.383 64.92 239.263 65.42 239.183 65.94C239.103 66.38 239.063 66.7 239.063 66.9C239.103 67.06 239.303 67.18 239.663 67.26C240.023 67.3 240.583 67.32 241.343 67.32C242.143 67.28 243.303 67.26 244.823 67.26C245.863 67.26 246.643 67.28 247.163 67.32C247.683 67.36 248.043 67.38 248.243 67.38C248.483 67.34 248.603 67.28 248.603 67.2C248.603 67.08 248.603 66.86 248.603 66.54C248.603 65.74 248.383 64.98 247.943 64.26ZM258.103 54.3C258.103 50.66 258.283 47.02 258.643 43.38L266.803 43.56C266.803 45.2 266.783 47.18 266.743 49.5C266.703 51.82 266.663 54.3 266.623 56.94C266.583 59.58 266.543 62.32 266.503 65.16C266.503 68 266.503 70.74 266.503 73.38C266.503 76.02 266.523 78.5 266.563 80.82C266.603 83.1 266.663 85.04 266.743 86.64C266.543 86.88 266.043 87 265.243 87C264.443 87.04 263.563 87.04 262.603 87C261.683 87 260.803 86.98 259.963 86.94C259.123 86.9 258.563 86.92 258.283 87C258.563 83.4 258.663 79.78 258.583 76.14C258.543 72.5 258.463 68.86 258.343 65.22C258.223 61.58 258.143 57.94 258.103 54.3ZM292.246 75.3C292.926 75.3 293.486 75.36 293.926 75.48C293.846 76.52 293.766 77.54 293.686 78.54C293.606 79.54 293.506 80.48 293.386 81.36C293.266 82.2 293.106 82.94 292.906 83.58C292.746 84.18 292.526 84.62 292.246 84.9C291.566 85.86 290.666 86.54 289.546 86.94C288.466 87.34 287.286 87.58 286.006 87.66C284.726 87.78 283.406 87.78 282.046 87.66C280.686 87.58 279.446 87.54 278.326 87.54C276.286 87.18 274.566 86.3 273.166 84.9C272.086 83.94 271.346 82.74 270.946 81.3C270.546 79.86 270.306 78.36 270.226 76.8C270.146 75.2 270.126 73.6 270.166 72C270.246 70.4 270.206 68.94 270.046 67.62C270.046 66.18 270.166 64.74 270.406 63.3C270.446 62.86 270.586 62.26 270.826 61.5C271.066 60.74 271.246 60.16 271.366 59.76C271.646 59.16 272.086 58.64 272.686 58.2C273.326 57.76 274.046 57.4 274.846 57.12C275.686 56.8 276.566 56.58 277.486 56.46C278.446 56.34 279.406 56.28 280.366 56.28C281.166 56.36 281.926 56.38 282.646 56.34C283.406 56.26 284.206 56.26 285.046 56.34C286.326 56.42 287.546 56.66 288.706 57.06C289.866 57.46 290.866 58.06 291.706 58.86C292.266 59.26 292.686 59.8 292.966 60.48C293.286 61.16 293.526 61.96 293.686 62.88C293.846 63.8 293.926 64.84 293.926 66C293.966 67.12 294.006 68.34 294.046 69.66C293.526 69.78 292.926 69.84 292.246 69.84C291.606 69.84 290.926 69.82 290.206 69.78C289.526 69.74 288.846 69.68 288.166 69.6C287.526 69.52 286.946 69.44 286.426 69.36C286.226 67.96 285.646 66.88 284.686 66.12C283.726 65.32 282.466 65.12 280.906 65.52C280.066 65.76 279.386 66.2 278.866 66.84C278.626 67 278.446 67.4 278.326 68.04C278.166 69.28 278.086 70.54 278.086 71.82C278.086 73.1 278.046 74.44 277.966 75.84C277.886 76.76 278.106 77.48 278.626 78C279.186 78.52 279.846 78.88 280.606 79.08C281.366 79.24 282.146 79.28 282.946 79.2C283.746 79.08 284.386 78.86 284.866 78.54C285.266 78.26 285.566 77.8 285.766 77.16C286.006 76.48 286.186 75.88 286.306 75.36C286.706 75.4 287.246 75.42 287.926 75.42C288.606 75.38 289.326 75.34 290.086 75.3C290.846 75.26 291.566 75.26 292.246 75.3ZM297.369 61.44C297.609 60.68 297.789 60.08 297.909 59.64C298.189 59.04 298.629 58.52 299.229 58.08C299.869 57.64 300.589 57.28 301.389 57C302.229 56.68 303.109 56.46 304.029 56.34C304.989 56.22 305.949 56.16 306.909 56.16C307.709 56.24 308.469 56.26 309.189 56.22C309.949 56.14 310.749 56.14 311.589 56.22C312.869 56.3 314.089 56.56 315.249 57C316.409 57.4 317.409 58 318.249 58.8C318.809 59.16 319.249 59.74 319.569 60.54C319.889 61.34 320.129 62.28 320.289 63.36C320.449 64.4 320.549 65.56 320.589 66.84C320.629 68.08 320.669 69.36 320.709 70.68C320.669 71.84 320.609 73.16 320.529 74.64C320.489 76.12 320.389 77.54 320.229 78.9C320.109 80.26 319.929 81.48 319.689 82.56C319.489 83.64 319.189 84.38 318.789 84.78C318.109 85.74 317.209 86.42 316.089 86.82C315.009 87.22 313.829 87.46 312.549 87.54C311.269 87.66 309.949 87.66 308.589 87.54C307.229 87.46 305.989 87.42 304.869 87.42C302.829 87.06 301.109 86.18 299.709 84.78C298.629 83.82 297.889 82.62 297.489 81.18C297.089 79.74 296.849 78.24 296.769 76.68C296.689 75.08 296.669 73.48 296.709 71.88C296.789 70.28 296.769 68.82 296.649 67.5C296.649 66.78 296.669 66.08 296.709 65.4C296.749 64.68 296.829 63.94 296.949 63.18C296.989 62.74 297.129 62.16 297.369 61.44ZM307.449 65.4C306.609 65.64 305.929 66.08 305.409 66.72C305.169 66.88 304.989 67.28 304.869 67.92C304.709 69.2 304.629 70.48 304.629 71.76C304.629 73 304.589 74.32 304.509 75.72C304.469 76.64 304.709 77.36 305.229 77.88C305.749 78.36 306.369 78.7 307.089 78.9C307.849 79.06 308.629 79.1 309.429 79.02C310.229 78.9 310.889 78.7 311.409 78.42C312.089 78.1 312.549 77.44 312.789 76.44C312.949 75.16 313.069 73.88 313.149 72.6C313.269 71.28 313.209 70.04 312.969 68.88C312.769 67.48 312.189 66.46 311.229 65.82C310.269 65.18 309.009 65.04 307.449 65.4ZM332.124 58.74C332.124 59.18 332.144 59.68 332.184 60.24C332.384 60.12 332.624 59.98 332.904 59.82C333.224 59.66 333.484 59.5 333.684 59.34C334.524 58.74 335.464 58.26 336.504 57.9C337.544 57.54 338.604 57.34 339.684 57.3C340.804 57.26 341.884 57.38 342.924 57.66C343.964 57.94 344.904 58.44 345.744 59.16C345.944 59.36 346.144 59.7 346.344 60.18C346.544 60.06 346.784 59.94 347.064 59.82C347.344 59.66 347.584 59.5 347.784 59.34C348.624 58.74 349.564 58.26 350.604 57.9C351.644 57.54 352.704 57.34 353.784 57.3C354.904 57.26 355.984 57.38 357.024 57.66C358.064 57.94 359.004 58.44 359.844 59.16C360.244 59.52 360.544 60.28 360.744 61.44C360.984 62.56 361.124 63.92 361.164 65.52C361.244 67.12 361.264 68.88 361.224 70.8C361.224 72.68 361.204 74.6 361.164 76.56C361.124 78.48 361.084 80.34 361.044 82.14C361.004 83.94 361.024 85.52 361.104 86.88C359.704 87.08 358.444 87.16 357.324 87.12C356.244 87.12 355.004 87.12 353.604 87.12C353.524 86.2 353.484 85.16 353.484 84C353.484 82.84 353.484 81.64 353.484 80.4C353.524 79.16 353.524 77.92 353.484 76.68C353.484 75.44 353.444 74.28 353.364 73.2C353.324 72.72 353.284 72.2 353.244 71.64C353.204 71.04 353.124 70.46 353.004 69.9C352.924 69.34 352.784 68.84 352.584 68.4C352.424 67.96 352.184 67.62 351.864 67.38C351.824 67.34 351.784 67.32 351.744 67.32C351.704 67.32 351.664 67.3 351.624 67.26C351.384 67.14 351.084 67.04 350.724 66.96C350.364 66.88 349.964 66.84 349.524 66.84C349.124 66.84 348.704 66.92 348.264 67.08C347.864 67.2 347.484 67.4 347.124 67.68C347.164 69.24 347.164 70.9 347.124 72.66C347.084 74.38 347.044 76.1 347.004 77.82C346.964 79.5 346.924 81.14 346.884 82.74C346.884 84.3 346.924 85.68 347.004 86.88C345.604 87.08 344.344 87.16 343.224 87.12C342.144 87.12 340.904 87.12 339.504 87.12C339.424 86.2 339.384 85.16 339.384 84C339.384 82.84 339.384 81.64 339.384 80.4C339.424 79.16 339.424 77.92 339.384 76.68C339.384 75.44 339.344 74.28 339.264 73.2C339.224 72.72 339.184 72.2 339.144 71.64C339.104 71.04 339.024 70.46 338.904 69.9C338.824 69.34 338.684 68.84 338.484 68.4C338.324 67.96 338.084 67.62 337.764 67.38C337.724 67.34 337.684 67.32 337.644 67.32C337.604 67.32 337.564 67.3 337.524 67.26C337.204 67.1 336.724 66.98 336.084 66.9C335.484 66.78 334.884 66.82 334.284 67.02C333.684 67.18 333.144 67.54 332.664 68.1C332.184 68.62 331.904 69.42 331.824 70.5C331.744 71.9 331.724 73.28 331.764 74.64C331.804 75.96 331.844 77.3 331.884 78.66C331.964 79.98 332.004 81.3 332.004 82.62C332.004 83.94 331.924 85.26 331.764 86.58V86.82C331.084 87.02 330.484 87.14 329.964 87.18C329.484 87.22 328.984 87.22 328.464 87.18C327.944 87.18 327.364 87.16 326.724 87.12C326.084 87.08 325.284 87.1 324.324 87.18C324.324 82.26 324.264 77.34 324.144 72.42C324.064 67.5 324.104 62.4 324.264 57.12C324.744 57.16 325.144 57.2 325.464 57.24C325.784 57.24 326.084 57.24 326.364 57.24C326.644 57.24 326.944 57.24 327.264 57.24C327.584 57.2 327.984 57.16 328.464 57.12C328.624 57.12 328.904 57.1 329.304 57.06C329.704 56.98 330.104 56.92 330.504 56.88C330.904 56.84 331.264 56.84 331.584 56.88C331.904 56.88 332.064 56.94 332.064 57.06C332.144 57.74 332.164 58.3 332.124 58.74ZM374.399 72.12C373.519 72.08 372.879 72.02 372.479 71.94V73.02C372.519 74.22 372.559 75.2 372.599 75.96C372.679 76.72 372.939 77.46 373.379 78.18C373.859 79.1 374.539 79.78 375.419 80.22C376.299 80.66 377.159 80.8 377.999 80.64C378.839 80.48 379.539 80 380.099 79.2C380.699 78.36 380.959 77.12 380.879 75.48C381.279 75.52 381.819 75.54 382.499 75.54C383.179 75.5 383.879 75.46 384.599 75.42C385.359 75.38 386.079 75.38 386.759 75.42C387.439 75.42 387.999 75.48 388.439 75.6C388.359 76.64 388.279 77.66 388.199 78.66C388.119 79.66 388.019 80.6 387.899 81.48C387.779 82.32 387.619 83.06 387.419 83.7C387.259 84.3 387.039 84.72 386.759 84.96C386.079 85.92 385.199 86.6 384.119 87C383.039 87.4 381.859 87.64 380.579 87.72C379.299 87.8 377.979 87.8 376.619 87.72C375.299 87.64 374.079 87.6 372.959 87.6C371.839 87.44 370.799 87.08 369.839 86.52C368.759 85.76 367.859 84.78 367.139 83.58C366.419 82.34 365.839 81 365.399 79.56C364.959 78.08 364.659 76.52 364.499 74.88C364.339 73.24 364.299 71.6 364.379 69.96C364.499 68.48 364.619 67.06 364.739 65.7C364.899 64.3 365.219 62.94 365.699 61.62C366.219 60.46 367.019 59.48 368.099 58.68C369.179 57.84 370.399 57.22 371.759 56.82C373.119 56.38 374.559 56.14 376.079 56.1C377.599 56.06 379.079 56.22 380.519 56.58C382.359 56.9 383.839 57.54 384.959 58.5C386.079 59.46 386.919 60.62 387.479 61.98C388.079 63.34 388.439 64.84 388.559 66.48C388.679 68.12 388.679 69.78 388.559 71.46C388.279 71.54 387.739 71.62 386.939 71.7C386.179 71.78 385.259 71.86 384.179 71.94C383.139 72.02 382.019 72.08 380.819 72.12C379.619 72.16 378.459 72.18 377.339 72.18C376.259 72.18 375.279 72.16 374.399 72.12ZM381.419 64.26C381.019 63.54 380.459 63 379.739 62.64C379.419 62.44 379.099 62.3 378.779 62.22C378.459 62.1 378.079 62.04 377.639 62.04C376.679 62.04 375.899 62.14 375.299 62.34C374.699 62.54 374.219 62.82 373.859 63.18C373.499 63.54 373.219 63.96 373.019 64.44C372.859 64.92 372.739 65.42 372.659 65.94C372.579 66.38 372.539 66.7 372.539 66.9C372.579 67.06 372.779 67.18 373.139 67.26C373.499 67.3 374.059 67.32 374.819 67.32C375.619 67.28 376.779 67.26 378.299 67.26C379.339 67.26 380.119 67.28 380.639 67.32C381.159 67.36 381.519 67.38 381.719 67.38C381.959 67.34 382.079 67.28 382.079 67.2C382.079 67.08 382.079 66.86 382.079 66.54C382.079 65.74 381.859 64.98 381.419 64.26ZM411.831 46.02C412.511 46.06 413.191 46.04 413.871 45.96V54C413.871 54.52 413.871 55.06 413.871 55.62C413.911 56.18 413.931 56.76 413.931 57.36C415.171 57.32 416.471 57.26 417.831 57.18C419.231 57.1 420.951 57 422.991 56.88C423.271 57.2 423.431 57.68 423.471 58.32C423.511 58.92 423.511 59.58 423.471 60.3C423.431 61.02 423.371 61.76 423.291 62.52C423.251 63.24 423.271 63.86 423.351 64.38H414.051C414.051 66.54 414.051 68.66 414.051 70.74C414.051 72.78 414.071 74.7 414.111 76.5C414.511 77.06 415.091 77.5 415.851 77.82C416.611 78.14 417.431 78.4 418.311 78.6C419.191 78.76 420.071 78.86 420.951 78.9C421.871 78.94 422.671 78.94 423.351 78.9C423.431 79.46 423.511 80.08 423.591 80.76C423.671 81.44 423.731 82.14 423.771 82.86C423.811 83.58 423.791 84.3 423.711 85.02C423.671 85.74 423.551 86.4 423.351 87C421.751 87.08 420.091 87.08 418.371 87C416.651 86.88 415.031 86.64 413.511 86.28C411.991 85.92 410.631 85.38 409.431 84.66C408.271 83.94 407.431 82.96 406.911 81.72C406.391 78.64 406.091 75.74 406.011 73.02C405.931 70.26 405.911 67.42 405.951 64.5C405.311 64.54 404.631 64.56 403.911 64.56C403.231 64.56 402.471 64.56 401.631 64.56L401.811 57.24C402.611 57.28 403.351 57.3 404.031 57.3C404.751 57.3 405.431 57.3 406.071 57.3C406.071 56.42 406.051 55.48 406.011 54.48C405.971 53.44 405.951 52.4 405.951 51.36C405.951 50.32 405.951 49.32 405.951 48.36C405.991 47.4 406.051 46.54 406.131 45.78C406.651 45.7 407.211 45.68 407.811 45.72C408.451 45.76 409.111 45.82 409.791 45.9C410.471 45.94 411.151 45.98 411.831 46.02ZM426.334 61.44C426.574 60.68 426.754 60.08 426.874 59.64C427.154 59.04 427.594 58.52 428.194 58.08C428.834 57.64 429.554 57.28 430.354 57C431.194 56.68 432.074 56.46 432.994 56.34C433.954 56.22 434.914 56.16 435.874 56.16C436.674 56.24 437.434 56.26 438.154 56.22C438.914 56.14 439.714 56.14 440.554 56.22C441.834 56.3 443.054 56.56 444.214 57C445.374 57.4 446.374 58 447.214 58.8C447.774 59.16 448.214 59.74 448.534 60.54C448.854 61.34 449.094 62.28 449.254 63.36C449.414 64.4 449.514 65.56 449.554 66.84C449.594 68.08 449.634 69.36 449.674 70.68C449.634 71.84 449.574 73.16 449.494 74.64C449.454 76.12 449.354 77.54 449.194 78.9C449.074 80.26 448.894 81.48 448.654 82.56C448.454 83.64 448.154 84.38 447.754 84.78C447.074 85.74 446.174 86.42 445.054 86.82C443.974 87.22 442.794 87.46 441.514 87.54C440.234 87.66 438.914 87.66 437.554 87.54C436.194 87.46 434.954 87.42 433.834 87.42C431.794 87.06 430.074 86.18 428.674 84.78C427.594 83.82 426.854 82.62 426.454 81.18C426.054 79.74 425.814 78.24 425.734 76.68C425.654 75.08 425.634 73.48 425.674 71.88C425.754 70.28 425.734 68.82 425.614 67.5C425.614 66.78 425.634 66.08 425.674 65.4C425.714 64.68 425.794 63.94 425.914 63.18C425.954 62.74 426.094 62.16 426.334 61.44ZM436.414 65.4C435.574 65.64 434.894 66.08 434.374 66.72C434.134 66.88 433.954 67.28 433.834 67.92C433.674 69.2 433.594 70.48 433.594 71.76C433.594 73 433.554 74.32 433.474 75.72C433.434 76.64 433.674 77.36 434.194 77.88C434.714 78.36 435.334 78.7 436.054 78.9C436.814 79.06 437.594 79.1 438.394 79.02C439.194 78.9 439.854 78.7 440.374 78.42C441.054 78.1 441.514 77.44 441.754 76.44C441.914 75.16 442.034 73.88 442.114 72.6C442.234 71.28 442.174 70.04 441.934 68.88C441.734 67.48 441.154 66.46 440.194 65.82C439.234 65.18 437.974 65.04 436.414 65.4ZM480.78 47.34C480.82 46.9 480.86 46.28 480.9 45.48V44.82C480.9 44.78 481.16 44.74 481.68 44.7C482.24 44.62 482.9 44.58 483.66 44.58C484.46 44.54 485.3 44.54 486.18 44.58C487.06 44.58 487.82 44.64 488.46 44.76V48.72C488.46 55.4 488.56 62 488.76 68.52C488.96 75.04 488.98 81.18 488.82 86.94C487.58 86.94 486.22 86.96 484.74 87C483.26 87.08 481.92 87.04 480.72 86.88C480.68 86.8 480.66 86.66 480.66 86.46C480.66 86.06 480.64 85.74 480.6 85.5C480.6 85.26 480.6 84.92 480.6 84.48C480.52 84.28 480.42 84.14 480.3 84.06C480.22 83.94 480.12 84 480 84.24C479.4 85.44 478.6 86.22 477.6 86.58C476.6 86.9 475.54 86.98 474.42 86.82C472.14 86.66 470.34 86.08 469.02 85.08C467.7 84.04 466.7 82.74 466.02 81.18C465.38 79.58 464.94 77.8 464.7 75.84C464.5 73.88 464.38 71.9 464.34 69.9C464.34 68.5 464.42 67.14 464.58 65.82C464.78 64.5 465.06 63.3 465.42 62.22C465.82 61.1 466.32 60.16 466.92 59.4C467.56 58.6 468.32 58.04 469.2 57.72C470.28 57.32 471.46 57.08 472.74 57C474.06 56.88 475.3 56.88 476.46 57C477.62 57.08 478.6 57.26 479.4 57.54C480.2 57.82 480.64 58.14 480.72 58.5C480.68 56.62 480.66 55.1 480.66 53.94C480.66 52.78 480.66 51.86 480.66 51.18C480.66 50.46 480.66 49.92 480.66 49.56C480.7 49.16 480.72 48.8 480.72 48.48C480.76 48.12 480.78 47.74 480.78 47.34ZM473.34 64.92C472.38 65.64 471.8 66.7 471.6 68.1C471.4 68.66 471.28 69.24 471.24 69.84C471.2 70.44 471.18 71.02 471.18 71.58C471.18 72.58 471.3 73.56 471.54 74.52C471.78 75.44 472.14 76.28 472.62 77.04C473.1 77.76 473.68 78.34 474.36 78.78C475.04 79.22 475.8 79.44 476.64 79.44C477.64 79.44 478.42 79.22 478.98 78.78C479.58 78.34 480.02 77.74 480.3 76.98C480.62 76.22 480.8 75.32 480.84 74.28C480.92 73.2 480.96 72.02 480.96 70.74C480.96 69.18 480.92 67.96 480.84 67.08C480.8 66.16 480.66 65.46 480.42 64.98C480.18 64.5 479.8 64.2 479.28 64.08C478.8 63.92 478.14 63.84 477.3 63.84C475.66 63.84 474.34 64.2 473.34 64.92ZM502.134 72.12C501.254 72.08 500.614 72.02 500.214 71.94V73.02C500.254 74.22 500.294 75.2 500.334 75.96C500.414 76.72 500.674 77.46 501.114 78.18C501.594 79.1 502.274 79.78 503.154 80.22C504.034 80.66 504.894 80.8 505.734 80.64C506.574 80.48 507.274 80 507.834 79.2C508.434 78.36 508.694 77.12 508.614 75.48C509.014 75.52 509.554 75.54 510.234 75.54C510.914 75.5 511.614 75.46 512.334 75.42C513.094 75.38 513.814 75.38 514.494 75.42C515.174 75.42 515.734 75.48 516.174 75.6C516.094 76.64 516.014 77.66 515.934 78.66C515.854 79.66 515.754 80.6 515.634 81.48C515.514 82.32 515.354 83.06 515.154 83.7C514.994 84.3 514.774 84.72 514.494 84.96C513.814 85.92 512.934 86.6 511.854 87C510.774 87.4 509.594 87.64 508.314 87.72C507.034 87.8 505.714 87.8 504.354 87.72C503.034 87.64 501.814 87.6 500.694 87.6C499.574 87.44 498.534 87.08 497.574 86.52C496.494 85.76 495.594 84.78 494.874 83.58C494.154 82.34 493.574 81 493.134 79.56C492.694 78.08 492.394 76.52 492.234 74.88C492.074 73.24 492.034 71.6 492.114 69.96C492.234 68.48 492.354 67.06 492.474 65.7C492.634 64.3 492.954 62.94 493.434 61.62C493.954 60.46 494.754 59.48 495.834 58.68C496.914 57.84 498.134 57.22 499.494 56.82C500.854 56.38 502.294 56.14 503.814 56.1C505.334 56.06 506.814 56.22 508.254 56.58C510.094 56.9 511.574 57.54 512.694 58.5C513.814 59.46 514.654 60.62 515.214 61.98C515.814 63.34 516.174 64.84 516.294 66.48C516.414 68.12 516.414 69.78 516.294 71.46C516.014 71.54 515.474 71.62 514.674 71.7C513.914 71.78 512.994 71.86 511.914 71.94C510.874 72.02 509.754 72.08 508.554 72.12C507.354 72.16 506.194 72.18 505.074 72.18C503.994 72.18 503.014 72.16 502.134 72.12ZM509.154 64.26C508.754 63.54 508.194 63 507.474 62.64C507.154 62.44 506.834 62.3 506.514 62.22C506.194 62.1 505.814 62.04 505.374 62.04C504.414 62.04 503.634 62.14 503.034 62.34C502.434 62.54 501.954 62.82 501.594 63.18C501.234 63.54 500.954 63.96 500.754 64.44C500.594 64.92 500.474 65.42 500.394 65.94C500.314 66.38 500.274 66.7 500.274 66.9C500.314 67.06 500.514 67.18 500.874 67.26C501.234 67.3 501.794 67.32 502.554 67.32C503.354 67.28 504.514 67.26 506.034 67.26C507.074 67.26 507.854 67.28 508.374 67.32C508.894 67.36 509.254 67.38 509.454 67.38C509.694 67.34 509.814 67.28 509.814 67.2C509.814 67.08 509.814 66.86 509.814 66.54C509.814 65.74 509.594 64.98 509.154 64.26ZM542.234 57.12C542.954 57.08 543.394 57.1 543.554 57.18C543.554 58.7 543.514 60.1 543.434 61.38C543.354 62.62 543.394 63.9 543.554 65.22C541.514 67.42 539.294 69.64 536.894 71.88C534.494 74.08 532.274 76.32 530.234 78.6C532.234 78.44 534.354 78.42 536.594 78.54C538.874 78.66 541.094 78.56 543.254 78.24C543.254 79.52 543.274 80.88 543.314 82.32C543.354 83.76 543.374 85.18 543.374 86.58C541.534 86.62 539.574 86.66 537.494 86.7C535.454 86.74 533.374 86.78 531.254 86.82C529.134 86.86 527.034 86.9 524.954 86.94C522.874 86.94 520.874 86.94 518.954 86.94C518.994 85.78 518.994 84.84 518.954 84.12C518.954 83.4 518.934 82.78 518.894 82.26C518.854 81.74 518.814 81.26 518.774 80.82C518.774 80.38 518.794 79.86 518.834 79.26C519.794 78.02 520.854 76.82 522.014 75.66C523.174 74.46 524.374 73.3 525.614 72.18C526.854 71.02 528.074 69.88 529.274 68.76C530.474 67.6 531.574 66.42 532.574 65.22C531.534 65.26 530.414 65.3 529.214 65.34C528.014 65.38 526.814 65.44 525.614 65.52C524.414 65.6 523.254 65.7 522.134 65.82C521.054 65.94 520.074 66.06 519.194 66.18C519.114 65.1 519.074 64.18 519.074 63.42C519.074 62.66 519.074 61.98 519.074 61.38C519.114 60.74 519.154 60.1 519.194 59.46C519.234 58.82 519.234 58.06 519.194 57.18C522.434 57.18 525.474 57.18 528.314 57.18C531.194 57.14 533.714 57.12 535.874 57.12C536.194 57.2 536.734 57.24 537.494 57.24C538.294 57.2 539.114 57.18 539.954 57.18C540.794 57.14 541.554 57.12 542.234 57.12ZM556.157 72.12C555.277 72.08 554.637 72.02 554.237 71.94V73.02C554.277 74.22 554.317 75.2 554.357 75.96C554.437 76.72 554.697 77.46 555.137 78.18C555.617 79.1 556.297 79.78 557.177 80.22C558.057 80.66 558.917 80.8 559.757 80.64C560.597 80.48 561.297 80 561.857 79.2C562.457 78.36 562.717 77.12 562.637 75.48C563.037 75.52 563.577 75.54 564.257 75.54C564.937 75.5 565.637 75.46 566.357 75.42C567.117 75.38 567.837 75.38 568.517 75.42C569.197 75.42 569.757 75.48 570.197 75.6C570.117 76.64 570.037 77.66 569.957 78.66C569.877 79.66 569.777 80.6 569.657 81.48C569.537 82.32 569.377 83.06 569.177 83.7C569.017 84.3 568.797 84.72 568.517 84.96C567.837 85.92 566.957 86.6 565.877 87C564.797 87.4 563.617 87.64 562.337 87.72C561.057 87.8 559.737 87.8 558.377 87.72C557.057 87.64 555.837 87.6 554.717 87.6C553.597 87.44 552.557 87.08 551.597 86.52C550.517 85.76 549.617 84.78 548.897 83.58C548.177 82.34 547.597 81 547.157 79.56C546.717 78.08 546.417 76.52 546.257 74.88C546.097 73.24 546.057 71.6 546.137 69.96C546.257 68.48 546.377 67.06 546.497 65.7C546.657 64.3 546.977 62.94 547.457 61.62C547.977 60.46 548.777 59.48 549.857 58.68C550.937 57.84 552.157 57.22 553.517 56.82C554.877 56.38 556.317 56.14 557.837 56.1C559.357 56.06 560.837 56.22 562.277 56.58C564.117 56.9 565.597 57.54 566.717 58.5C567.837 59.46 568.677 60.62 569.237 61.98C569.837 63.34 570.197 64.84 570.317 66.48C570.437 68.12 570.437 69.78 570.317 71.46C570.037 71.54 569.497 71.62 568.697 71.7C567.937 71.78 567.017 71.86 565.937 71.94C564.897 72.02 563.777 72.08 562.577 72.12C561.377 72.16 560.217 72.18 559.097 72.18C558.017 72.18 557.037 72.16 556.157 72.12ZM563.177 64.26C562.777 63.54 562.217 63 561.497 62.64C561.177 62.44 560.857 62.3 560.537 62.22C560.217 62.1 559.837 62.04 559.397 62.04C558.437 62.04 557.657 62.14 557.057 62.34C556.457 62.54 555.977 62.82 555.617 63.18C555.257 63.54 554.977 63.96 554.777 64.44C554.617 64.92 554.497 65.42 554.417 65.94C554.337 66.38 554.297 66.7 554.297 66.9C554.337 67.06 554.537 67.18 554.897 67.26C555.257 67.3 555.817 67.32 556.577 67.32C557.377 67.28 558.537 67.26 560.057 67.26C561.097 67.26 561.877 67.28 562.397 67.32C562.917 67.36 563.277 67.38 563.477 67.38C563.717 67.34 563.837 67.28 563.837 67.2C563.837 67.08 563.837 66.86 563.837 66.54C563.837 65.74 563.617 64.98 563.177 64.26ZM581.557 58.74C581.557 59.18 581.577 59.68 581.617 60.24C581.817 60.12 582.057 59.98 582.337 59.82C582.657 59.66 582.917 59.5 583.117 59.34C583.957 58.74 584.897 58.26 585.937 57.9C586.977 57.54 588.037 57.34 589.117 57.3C590.237 57.26 591.317 57.38 592.357 57.66C593.397 57.94 594.337 58.44 595.177 59.16C595.377 59.36 595.577 59.7 595.777 60.18C595.977 60.06 596.217 59.94 596.497 59.82C596.777 59.66 597.017 59.5 597.217 59.34C598.057 58.74 598.997 58.26 600.037 57.9C601.077 57.54 602.137 57.34 603.217 57.3C604.337 57.26 605.417 57.38 606.457 57.66C607.497 57.94 608.437 58.44 609.277 59.16C609.677 59.52 609.977 60.28 610.177 61.44C610.417 62.56 610.557 63.92 610.597 65.52C610.677 67.12 610.697 68.88 610.657 70.8C610.657 72.68 610.637 74.6 610.597 76.56C610.557 78.48 610.517 80.34 610.477 82.14C610.437 83.94 610.457 85.52 610.537 86.88C609.137 87.08 607.877 87.16 606.757 87.12C605.677 87.12 604.437 87.12 603.037 87.12C602.957 86.2 602.917 85.16 602.917 84C602.917 82.84 602.917 81.64 602.917 80.4C602.957 79.16 602.957 77.92 602.917 76.68C602.917 75.44 602.877 74.28 602.797 73.2C602.757 72.72 602.717 72.2 602.677 71.64C602.637 71.04 602.557 70.46 602.437 69.9C602.357 69.34 602.217 68.84 602.017 68.4C601.857 67.96 601.617 67.62 601.297 67.38C601.257 67.34 601.217 67.32 601.177 67.32C601.137 67.32 601.097 67.3 601.057 67.26C600.817 67.14 600.517 67.04 600.157 66.96C599.797 66.88 599.397 66.84 598.957 66.84C598.557 66.84 598.137 66.92 597.697 67.08C597.297 67.2 596.917 67.4 596.557 67.68C596.597 69.24 596.597 70.9 596.557 72.66C596.517 74.38 596.477 76.1 596.437 77.82C596.397 79.5 596.357 81.14 596.317 82.74C596.317 84.3 596.357 85.68 596.437 86.88C595.037 87.08 593.777 87.16 592.657 87.12C591.577 87.12 590.337 87.12 588.937 87.12C588.857 86.2 588.817 85.16 588.817 84C588.817 82.84 588.817 81.64 588.817 80.4C588.857 79.16 588.857 77.92 588.817 76.68C588.817 75.44 588.777 74.28 588.697 73.2C588.657 72.72 588.617 72.2 588.577 71.64C588.537 71.04 588.457 70.46 588.337 69.9C588.257 69.34 588.117 68.84 587.917 68.4C587.757 67.96 587.517 67.62 587.197 67.38C587.157 67.34 587.117 67.32 587.077 67.32C587.037 67.32 586.997 67.3 586.957 67.26C586.637 67.1 586.157 66.98 585.517 66.9C584.917 66.78 584.317 66.82 583.717 67.02C583.117 67.18 582.577 67.54 582.097 68.1C581.617 68.62 581.337 69.42 581.257 70.5C581.177 71.9 581.157 73.28 581.197 74.64C581.237 75.96 581.277 77.3 581.317 78.66C581.397 79.98 581.437 81.3 581.437 82.62C581.437 83.94 581.357 85.26 581.197 86.58V86.82C580.517 87.02 579.917 87.14 579.397 87.18C578.917 87.22 578.417 87.22 577.897 87.18C577.377 87.18 576.797 87.16 576.157 87.12C575.517 87.08 574.717 87.1 573.757 87.18C573.757 82.26 573.697 77.34 573.577 72.42C573.497 67.5 573.537 62.4 573.697 57.12C574.177 57.16 574.577 57.2 574.897 57.24C575.217 57.24 575.517 57.24 575.797 57.24C576.077 57.24 576.377 57.24 576.697 57.24C577.017 57.2 577.417 57.16 577.897 57.12C578.057 57.12 578.337 57.1 578.737 57.06C579.137 56.98 579.537 56.92 579.937 56.88C580.337 56.84 580.697 56.84 581.017 56.88C581.337 56.88 581.497 56.94 581.497 57.06C581.577 57.74 581.597 58.3 581.557 58.74ZM621.733 44.7C622.293 44.74 622.573 44.78 622.573 44.82V45.48C622.613 46.28 622.633 46.9 622.633 47.34C622.673 47.74 622.693 48.12 622.693 48.48C622.733 48.8 622.753 49.16 622.753 49.56C622.793 49.92 622.813 50.46 622.813 51.18C622.813 51.86 622.813 52.78 622.813 53.94C622.813 55.1 622.793 56.62 622.753 58.5C622.833 58.14 623.273 57.82 624.073 57.54C624.873 57.26 625.853 57.08 627.013 57C628.173 56.88 629.393 56.88 630.673 57C631.993 57.08 633.193 57.32 634.273 57.72C635.153 58.04 635.893 58.6 636.493 59.4C637.133 60.16 637.633 61.1 637.993 62.22C638.393 63.3 638.673 64.5 638.833 65.82C639.033 67.14 639.133 68.5 639.133 69.9C639.053 71.9 638.913 73.88 638.713 75.84C638.513 77.8 638.073 79.58 637.393 81.18C636.753 82.74 635.773 84.04 634.453 85.08C633.133 86.08 631.333 86.66 629.053 86.82C627.933 86.98 626.873 86.9 625.873 86.58C624.873 86.22 624.073 85.44 623.473 84.24C623.353 84 623.233 83.94 623.113 84.06C623.033 84.14 622.953 84.28 622.873 84.48C622.873 84.92 622.853 85.26 622.813 85.5C622.813 85.74 622.813 86.06 622.813 86.46C622.813 86.66 622.793 86.8 622.753 86.88C621.553 87.04 620.213 87.08 618.733 87C617.253 86.96 615.893 86.94 614.653 86.94C614.573 84.06 614.533 81.08 614.533 78C614.573 74.88 614.613 71.72 614.653 68.52C614.733 65.28 614.813 62 614.893 58.68C614.973 55.36 615.013 52.04 615.013 48.72V44.76C615.653 44.64 616.413 44.58 617.293 44.58C618.173 44.54 618.993 44.54 619.753 44.58C620.553 44.58 621.213 44.62 621.733 44.7ZM632.233 69.84C632.193 69.24 632.073 68.66 631.873 68.1C631.673 66.7 631.073 65.64 630.073 64.92C629.113 64.2 627.813 63.84 626.173 63.84C625.333 63.84 624.653 63.92 624.133 64.08C623.653 64.2 623.293 64.5 623.053 64.98C622.813 65.46 622.653 66.16 622.573 67.08C622.533 67.96 622.513 69.18 622.513 70.74C622.513 72.02 622.533 73.2 622.573 74.28C622.653 75.32 622.833 76.22 623.113 76.98C623.433 77.74 623.873 78.34 624.433 78.78C624.993 79.22 625.793 79.44 626.833 79.44C627.673 79.44 628.433 79.22 629.113 78.78C629.793 78.34 630.373 77.76 630.853 77.04C631.333 76.28 631.693 75.44 631.933 74.52C632.173 73.56 632.293 72.58 632.293 71.58C632.293 71.02 632.273 70.44 632.233 69.84ZM663.305 56.94C664.305 56.98 665.445 57.04 666.725 57.12C666.765 57.36 666.785 57.6 666.785 57.84C666.825 58.08 666.845 58.32 666.845 58.56V59.16C666.725 63.48 666.745 67.74 666.905 71.94C667.065 76.1 667.005 80.32 666.725 84.6C666.725 85.12 666.705 85.64 666.665 86.16C666.665 86.68 666.425 86.98 665.945 87.06H665.225C664.585 87.06 663.925 87.04 663.245 87C662.605 86.92 661.965 86.88 661.325 86.88C660.885 86.88 660.445 86.92 660.005 87C659.605 87.04 659.185 87.06 658.745 87.06C658.465 86.98 658.265 86.82 658.145 86.58C658.065 86.34 658.025 86.06 658.025 85.74C658.025 85.3 658.065 84.94 658.145 84.66C658.225 84.38 658.265 84.04 658.265 83.64C657.305 84.6 656.085 85.42 654.605 86.1C653.165 86.78 651.745 87.12 650.345 87.12C648.785 87.12 647.445 86.58 646.325 85.5C645.245 84.42 644.345 83.08 643.625 81.48C642.905 79.88 642.365 78.14 642.005 76.26C641.685 74.38 641.525 72.64 641.525 71.04C641.525 69.04 641.785 67.2 642.305 65.52C642.825 63.84 643.525 62.4 644.405 61.2C645.325 59.96 646.405 59 647.645 58.32C648.885 57.6 650.205 57.22 651.605 57.18C652.325 57.18 652.985 57.2 653.585 57.24C654.225 57.24 654.805 57.34 655.325 57.54C655.845 57.7 656.305 57.98 656.705 58.38C657.105 58.74 657.445 59.26 657.725 59.94C657.685 59.3 657.705 58.76 657.785 58.32C657.905 57.84 657.965 57.36 657.965 56.88C657.965 56.84 658.085 56.82 658.325 56.82C658.605 56.78 658.905 56.78 659.225 56.82C659.545 56.82 659.865 56.82 660.185 56.82C660.505 56.82 660.725 56.82 660.845 56.82C661.525 56.86 662.345 56.9 663.305 56.94ZM650.945 66.42C650.025 67.18 649.465 68.06 649.265 69.06C649.105 69.58 649.005 70.12 648.965 70.68C648.925 71.2 648.905 71.72 648.905 72.24C648.905 74.04 649.365 75.58 650.285 76.86C651.245 78.1 652.565 78.72 654.245 78.72C655.245 78.72 655.985 78.56 656.465 78.24C656.985 77.88 657.345 77.4 657.545 76.8C657.785 76.16 657.905 75.4 657.905 74.52C657.945 73.6 657.965 72.58 657.965 71.46C657.965 70.06 657.945 68.96 657.905 68.16C657.905 67.32 657.805 66.68 657.605 66.24C657.445 65.8 657.145 65.52 656.705 65.4C656.305 65.28 655.685 65.22 654.845 65.22C653.205 65.22 651.905 65.62 650.945 66.42Z" fill="#063684"/>
<path d="M678.04 87H677.92L671.14 86.94H670.96C670.88 86.5 670.82 85.94 670.78 85.26C670.78 84.58 670.78 83.9 670.78 83.22C670.82 82.54 670.84 81.9 670.84 81.3C670.88 80.7 670.9 80.26 670.9 79.98C671.3 79.82 671.86 79.7 672.58 79.62C673.34 79.54 674.1 79.5 674.86 79.5C675.62 79.5 676.32 79.54 676.96 79.62C677.64 79.66 678.12 79.74 678.4 79.86C678.4 79.9 678.38 80.24 678.34 80.88C678.3 81.48 678.26 82.18 678.22 82.98C678.18 83.78 678.14 84.56 678.1 85.32C678.06 86.08 678.04 86.6 678.04 86.88V86.94V87ZM686.467 56.82C687.387 56.86 688.487 56.86 689.767 56.82H690.787V57C690.747 61.84 690.647 66.78 690.487 71.82C690.367 76.86 690.447 81.8 690.727 86.64C690.527 86.88 690.027 87 689.227 87C688.427 87.04 687.547 87.04 686.587 87C685.667 87 684.787 86.98 683.947 86.94C683.107 86.9 682.547 86.92 682.267 87C682.467 84.48 682.547 81.92 682.507 79.32C682.507 76.72 682.467 74.14 682.387 71.58C682.307 69.02 682.267 66.5 682.267 64.02C682.267 61.5 682.387 59.06 682.627 56.7V56.64C682.787 56.6 683.047 56.6 683.407 56.64C683.807 56.68 684.107 56.7 684.307 56.7C684.827 56.74 685.547 56.78 686.467 56.82ZM682.447 48.42C682.367 47.14 682.347 45.58 682.387 43.74L690.547 43.92C690.547 44.16 690.547 44.6 690.547 45.24C690.587 45.84 690.607 46.52 690.607 47.28C690.647 48 690.667 48.76 690.667 49.56C690.707 50.32 690.727 51 690.727 51.6C690.567 51.84 690.187 52 689.587 52.08C689.027 52.16 688.347 52.2 687.547 52.2C686.787 52.16 685.967 52.12 685.087 52.08C684.207 52 683.387 51.98 682.627 52.02C682.627 50.86 682.567 49.66 682.447 48.42ZM694.869 61.44C695.109 60.68 695.289 60.08 695.409 59.64C695.689 59.04 696.129 58.52 696.729 58.08C697.369 57.64 698.089 57.28 698.889 57C699.729 56.68 700.609 56.46 701.529 56.34C702.489 56.22 703.449 56.16 704.409 56.16C705.209 56.24 705.969 56.26 706.689 56.22C707.449 56.14 708.249 56.14 709.089 56.22C710.369 56.3 711.589 56.56 712.749 57C713.909 57.4 714.909 58 715.749 58.8C716.309 59.16 716.749 59.74 717.069 60.54C717.389 61.34 717.629 62.28 717.789 63.36C717.949 64.4 718.049 65.56 718.089 66.84C718.129 68.08 718.169 69.36 718.209 70.68C718.169 71.84 718.109 73.16 718.029 74.64C717.989 76.12 717.889 77.54 717.729 78.9C717.609 80.26 717.429 81.48 717.189 82.56C716.989 83.64 716.689 84.38 716.289 84.78C715.609 85.74 714.709 86.42 713.589 86.82C712.509 87.22 711.329 87.46 710.049 87.54C708.769 87.66 707.449 87.66 706.089 87.54C704.729 87.46 703.489 87.42 702.369 87.42C700.329 87.06 698.609 86.18 697.209 84.78C696.129 83.82 695.389 82.62 694.989 81.18C694.589 79.74 694.349 78.24 694.269 76.68C694.189 75.08 694.169 73.48 694.209 71.88C694.289 70.28 694.269 68.82 694.149 67.5C694.149 66.78 694.169 66.08 694.209 65.4C694.249 64.68 694.329 63.94 694.449 63.18C694.489 62.74 694.629 62.16 694.869 61.44ZM704.949 65.4C704.109 65.64 703.429 66.08 702.909 66.72C702.669 66.88 702.489 67.28 702.369 67.92C702.209 69.2 702.129 70.48 702.129 71.76C702.129 73 702.089 74.32 702.009 75.72C701.969 76.64 702.209 77.36 702.729 77.88C703.249 78.36 703.869 78.7 704.589 78.9C705.349 79.06 706.129 79.1 706.929 79.02C707.729 78.9 708.389 78.7 708.909 78.42C709.589 78.1 710.049 77.44 710.289 76.44C710.449 75.16 710.569 73.88 710.649 72.6C710.769 71.28 710.709 70.04 710.469 68.88C710.269 67.48 709.689 66.46 708.729 65.82C707.769 65.18 706.509 65.04 704.949 65.4Z" fill="#F00ACA"/>
<g filter="url(#filter0_d_32_48)">
<circle cx="117" cy="66" r="46.5" fill="white" stroke="#063684" stroke-width="7"/>
<path d="M108.322 55.9393L124.923 72.5405L99.4705 89.0275L92 81.557L108.322 55.9393Z" stroke="#063684" stroke-width="2.5" stroke-linecap="round" stroke-linejoin="round"/>
<path d="M132.949 63.091C131.639 64.4017 130.775 64.4118 129.474 64.8587C129.434 68.3134 129.482 71.7898 125.098 72.6484L108.026 55.5764C108.026 55.5764 108.015 53.8842 109.751 52.9994C110.363 52.7129 111.603 52.8484 112.342 52.9687C114.08 49.2309 116.711 48.5999 119.636 49.8084C121.039 47.6859 124.504 46.782 127.085 47.6155C129.666 48.4489 129.646 50.1762 131.363 51.0197C133.08 51.8632 134.828 50.1157 134.838 49.252C134.848 48.3884 134.696 46.7363 135.861 47.0358C136.571 47.2277 137.143 47.9193 137.832 50.7972C138.217 52.4127 137.993 54.8025 136.613 56.2696C135.766 57.1699 133.874 57.6405 133.01 57.909C133.092 58.1444 134.26 61.7804 132.949 63.091Z" stroke="#063684" stroke-width="2.5" stroke-linecap="round" stroke-linejoin="round"/>
<path d="M133.009 57.9084C129.534 59.676 126.953 58.8425 124.393 56.2817" stroke="#063684" stroke-width="2.5" stroke-linecap="round" stroke-linejoin="round"/>
<circle cx="137.5" cy="47.5" r="4.5" fill="#F00ACA" stroke="#063684" stroke-width="2"/>
</g>
<defs>
<filter id="filter0_d_32_48" x="63" y="16" width="108" height="108" filterUnits="userSpaceOnUse" color-interpolation-filters="sRGB">
<feFlood flood-opacity="0" result="BackgroundImageFix"/>
<feColorMatrix in="SourceAlpha" type="matrix" values="0 0 0 0 0 0 0 0 0 0 0 0 0 0 0 0 0 0 127 0" result="hardAlpha"/>
<feOffset dy="4"/>
<feGaussianBlur stdDeviation="2"/>
<feComposite in2="hardAlpha" operator="out"/>
<feColorMatrix type="matrix" values="0 0 0 0 0 0 0 0 0 0 0 0 0 0 0 0 0 0 0.25 0"/>
<feBlend mode="normal" in2="BackgroundImageFix" result="effect1_dropShadow_32_48"/>
<feBlend mode="normal" in="SourceGraphic" in2="effect1_dropShadow_32_48" result="shape"/>
</filter>
</defs>
</svg>
