<svg width="658" height="132" viewBox="0 0 658 132" fill="none" xmlns="http://www.w3.org/2000/svg">
<rect width="658" height="132" fill="#DCEBFE"/>
<path d="M169.305 43.8C170.574 43.8 171.825 43.856 173.057 43.968L173.113 44.024C172.553 50.4827 171.918 56.9227 171.209 63.344C170.537 69.7653 169.939 76.224 169.417 82.72C169.155 82.7947 168.857 82.832 168.521 82.832C168.222 82.832 167.886 82.832 167.513 82.832H165.497H164.825C164.489 82.384 164.19 81.7493 163.929 80.928C163.705 80.0693 163.462 79.1733 163.201 78.24C162.939 77.2693 162.678 76.336 162.417 75.44C162.155 74.544 161.857 73.8347 161.521 73.312H161.465C161.129 73.648 160.83 74.2453 160.569 75.104C160.345 75.9253 160.121 76.8213 159.897 77.792C159.673 78.7253 159.449 79.64 159.225 80.536C159.001 81.432 158.739 82.1227 158.441 82.608C157.955 82.6827 157.507 82.7573 157.097 82.832C156.686 82.8693 156.219 82.888 155.697 82.888C155.099 82.888 154.39 82.832 153.569 82.72H153.513C152.617 76.336 151.739 69.9147 150.881 63.456C150.022 56.9973 149.537 50.5387 149.425 44.08V44.024C149.985 43.9493 150.563 43.8933 151.161 43.856C151.795 43.7813 152.43 43.744 153.065 43.744C153.811 43.744 154.558 43.7627 155.305 43.8C156.051 43.8373 156.761 43.8747 157.433 43.912C157.582 45.5547 157.657 47.4027 157.657 49.456C157.657 51.5093 157.657 53.5813 157.657 55.672C157.657 57.7627 157.713 59.816 157.825 61.832C157.937 63.848 158.198 65.6587 158.609 67.264C159.094 65.584 159.523 63.9413 159.897 62.336C160.307 60.6933 160.718 59.032 161.129 57.352C161.166 57.2773 161.185 57.2213 161.185 57.184C161.185 57.1467 161.203 57.1093 161.241 57.072C161.39 57.184 161.595 57.7253 161.857 58.696C162.155 59.6293 162.435 60.6933 162.697 61.888C162.995 63.0827 163.275 64.2587 163.537 65.416C163.835 66.5733 164.097 67.432 164.321 67.992C164.47 66.3867 164.582 64.5573 164.657 62.504C164.731 60.4133 164.787 58.2853 164.825 56.12C164.899 53.9547 164.955 51.8453 164.993 49.792C165.067 47.7013 165.179 45.8347 165.329 44.192V44.136C165.963 43.9867 166.617 43.8933 167.289 43.856C167.961 43.8187 168.633 43.8 169.305 43.8ZM184.094 69.112C183.273 69.0747 182.676 69.0187 182.302 68.944V69.952C182.34 71.072 182.377 71.9867 182.414 72.696C182.489 73.4053 182.732 74.096 183.142 74.768C183.59 75.6267 184.225 76.2613 185.046 76.672C185.868 77.0827 186.67 77.2133 187.454 77.064C188.238 76.9147 188.892 76.4667 189.414 75.72C189.974 74.936 190.217 73.7787 190.142 72.248C190.516 72.2853 191.02 72.304 191.654 72.304C192.289 72.2667 192.942 72.2293 193.614 72.192C194.324 72.1547 194.996 72.1547 195.63 72.192C196.265 72.192 196.788 72.248 197.198 72.36C197.124 73.3307 197.049 74.2827 196.974 75.216C196.9 76.1493 196.806 77.0267 196.694 77.848C196.582 78.632 196.433 79.3227 196.246 79.92C196.097 80.48 195.892 80.872 195.63 81.096C194.996 81.992 194.174 82.6267 193.166 83C192.158 83.3733 191.057 83.5973 189.862 83.672C188.668 83.7467 187.436 83.7467 186.166 83.672C184.934 83.5973 183.796 83.56 182.75 83.56C181.705 83.4107 180.734 83.0747 179.838 82.552C178.83 81.8427 177.99 80.928 177.318 79.808C176.646 78.6507 176.105 77.4 175.694 76.056C175.284 74.6747 175.004 73.2187 174.854 71.688C174.705 70.1573 174.668 68.6267 174.742 67.096C174.854 65.7147 174.966 64.3893 175.078 63.12C175.228 61.8133 175.526 60.544 175.974 59.312C176.46 58.2293 177.206 57.3147 178.214 56.568C179.222 55.784 180.361 55.2053 181.63 54.832C182.9 54.4213 184.244 54.1973 185.662 54.16C187.081 54.1227 188.462 54.272 189.806 54.608C191.524 54.9067 192.905 55.504 193.95 56.4C194.996 57.296 195.78 58.3787 196.302 59.648C196.862 60.9173 197.198 62.3173 197.31 63.848C197.422 65.3787 197.422 66.928 197.31 68.496C197.049 68.5707 196.545 68.6453 195.798 68.72C195.089 68.7947 194.23 68.8693 193.222 68.944C192.252 69.0187 191.206 69.0747 190.086 69.112C188.966 69.1493 187.884 69.168 186.838 69.168C185.83 69.168 184.916 69.1493 184.094 69.112ZM190.646 61.776C190.273 61.104 189.75 60.6 189.078 60.264C188.78 60.0773 188.481 59.9467 188.182 59.872C187.884 59.76 187.529 59.704 187.118 59.704C186.222 59.704 185.494 59.7973 184.934 59.984C184.374 60.1707 183.926 60.432 183.59 60.768C183.254 61.104 182.993 61.496 182.806 61.944C182.657 62.392 182.545 62.8587 182.47 63.344C182.396 63.7547 182.358 64.0533 182.358 64.24C182.396 64.3893 182.582 64.5013 182.918 64.576C183.254 64.6133 183.777 64.632 184.486 64.632C185.233 64.5947 186.316 64.576 187.734 64.576C188.705 64.576 189.433 64.5947 189.918 64.632C190.404 64.6693 190.74 64.688 190.926 64.688C191.15 64.6507 191.262 64.5947 191.262 64.52C191.262 64.408 191.262 64.2027 191.262 63.904C191.262 63.1573 191.057 62.448 190.646 61.776ZM200.129 52.48C200.129 49.0827 200.297 45.6853 200.633 42.288L208.249 42.456C208.249 43.9867 208.231 45.8347 208.193 48C208.156 50.1653 208.119 52.48 208.081 54.944C208.044 57.408 208.007 59.9653 207.969 62.616C207.969 65.2667 207.969 67.824 207.969 70.288C207.969 72.752 207.988 75.0667 208.025 77.232C208.063 79.36 208.119 81.1707 208.193 82.664C208.007 82.888 207.54 83 206.793 83C206.047 83.0373 205.225 83.0373 204.329 83C203.471 83 202.649 82.9813 201.865 82.944C201.081 82.9067 200.559 82.9253 200.297 83C200.559 79.64 200.652 76.2613 200.577 72.864C200.54 69.4667 200.465 66.0693 200.353 62.672C200.241 59.2747 200.167 55.8773 200.129 52.48ZM231.996 72.08C232.631 72.08 233.154 72.136 233.564 72.248C233.49 73.2187 233.415 74.1707 233.34 75.104C233.266 76.0373 233.172 76.9147 233.06 77.736C232.948 78.52 232.799 79.2107 232.612 79.808C232.463 80.368 232.258 80.7787 231.996 81.04C231.362 81.936 230.522 82.5707 229.476 82.944C228.468 83.3173 227.367 83.5413 226.172 83.616C224.978 83.728 223.746 83.728 222.476 83.616C221.207 83.5413 220.05 83.504 219.004 83.504C217.1 83.168 215.495 82.3467 214.188 81.04C213.18 80.144 212.49 79.024 212.116 77.68C211.743 76.336 211.519 74.936 211.444 73.48C211.37 71.9867 211.351 70.4933 211.388 69C211.463 67.5067 211.426 66.144 211.276 64.912C211.276 63.568 211.388 62.224 211.612 60.88C211.65 60.4693 211.78 59.9093 212.004 59.2C212.228 58.4907 212.396 57.9493 212.508 57.576C212.77 57.016 213.18 56.5307 213.74 56.12C214.338 55.7093 215.01 55.3733 215.756 55.112C216.54 54.8133 217.362 54.608 218.22 54.496C219.116 54.384 220.012 54.328 220.908 54.328C221.655 54.4027 222.364 54.4213 223.036 54.384C223.746 54.3093 224.492 54.3093 225.276 54.384C226.471 54.4587 227.61 54.6827 228.692 55.056C229.775 55.4293 230.708 55.9893 231.492 56.736C232.015 57.1093 232.407 57.6133 232.668 58.248C232.967 58.8827 233.191 59.6293 233.34 60.488C233.49 61.3467 233.564 62.3173 233.564 63.4C233.602 64.4453 233.639 65.584 233.676 66.816C233.191 66.928 232.631 66.984 231.996 66.984C231.399 66.984 230.764 66.9653 230.092 66.928C229.458 66.8907 228.823 66.8347 228.188 66.76C227.591 66.6853 227.05 66.6107 226.564 66.536C226.378 65.2293 225.836 64.2213 224.94 63.512C224.044 62.7653 222.868 62.5787 221.412 62.952C220.628 63.176 219.994 63.5867 219.508 64.184C219.284 64.3333 219.116 64.7067 219.004 65.304C218.855 66.4613 218.78 67.6373 218.78 68.832C218.78 70.0267 218.743 71.2773 218.668 72.584C218.594 73.4427 218.799 74.1147 219.284 74.6C219.807 75.0853 220.423 75.4213 221.132 75.608C221.842 75.7573 222.57 75.7947 223.316 75.72C224.063 75.608 224.66 75.4027 225.108 75.104C225.482 74.8427 225.762 74.4133 225.948 73.816C226.172 73.1813 226.34 72.6213 226.452 72.136C226.826 72.1733 227.33 72.192 227.964 72.192C228.599 72.1547 229.271 72.1173 229.98 72.08C230.69 72.0427 231.362 72.0427 231.996 72.08ZM236.778 59.144C237.002 58.4347 237.17 57.8747 237.282 57.464C237.543 56.904 237.954 56.4187 238.514 56.008C239.111 55.5973 239.783 55.2613 240.53 55C241.314 54.7013 242.135 54.496 242.994 54.384C243.89 54.272 244.786 54.216 245.682 54.216C246.428 54.2907 247.138 54.3093 247.81 54.272C248.519 54.1973 249.266 54.1973 250.05 54.272C251.244 54.3467 252.383 54.5893 253.466 55C254.548 55.3733 255.482 55.9333 256.266 56.68C256.788 57.016 257.199 57.5573 257.498 58.304C257.796 59.0507 258.02 59.928 258.17 60.936C258.319 61.9067 258.412 62.9893 258.45 64.184C258.487 65.3413 258.524 66.536 258.562 67.768C258.524 68.8507 258.468 70.0827 258.394 71.464C258.356 72.8453 258.263 74.1707 258.114 75.44C258.002 76.7093 257.834 77.848 257.61 78.856C257.423 79.864 257.143 80.5547 256.77 80.928C256.135 81.824 255.295 82.4587 254.25 82.832C253.242 83.2053 252.14 83.4293 250.946 83.504C249.751 83.616 248.519 83.616 247.25 83.504C245.98 83.4293 244.823 83.392 243.778 83.392C241.874 83.056 240.268 82.2347 238.962 80.928C237.954 80.032 237.263 78.912 236.89 77.568C236.516 76.224 236.292 74.824 236.218 73.368C236.143 71.8747 236.124 70.3813 236.162 68.888C236.236 67.3947 236.218 66.032 236.106 64.8C236.106 64.128 236.124 63.4747 236.162 62.84C236.199 62.168 236.274 61.4773 236.386 60.768C236.423 60.3573 236.554 59.816 236.778 59.144ZM246.186 62.84C245.402 63.064 244.767 63.4747 244.282 64.072C244.058 64.2213 243.89 64.5947 243.778 65.192C243.628 66.3867 243.554 67.5813 243.554 68.776C243.554 69.9333 243.516 71.1653 243.442 72.472C243.404 73.3307 243.628 74.0027 244.114 74.488C244.599 74.936 245.178 75.2533 245.85 75.44C246.559 75.5893 247.287 75.6267 248.034 75.552C248.78 75.44 249.396 75.2533 249.882 74.992C250.516 74.6933 250.946 74.0773 251.17 73.144C251.319 71.9493 251.431 70.7547 251.506 69.56C251.618 68.328 251.562 67.1707 251.338 66.088C251.151 64.7813 250.61 63.8293 249.714 63.232C248.818 62.6347 247.642 62.504 246.186 62.84ZM269.215 56.624C269.215 57.0347 269.234 57.5013 269.271 58.024C269.458 57.912 269.682 57.7813 269.943 57.632C270.242 57.4827 270.485 57.3333 270.671 57.184C271.455 56.624 272.333 56.176 273.303 55.84C274.274 55.504 275.263 55.3173 276.271 55.28C277.317 55.2427 278.325 55.3547 279.295 55.616C280.266 55.8773 281.143 56.344 281.927 57.016C282.114 57.2027 282.301 57.52 282.487 57.968C282.674 57.856 282.898 57.744 283.159 57.632C283.421 57.4827 283.645 57.3333 283.831 57.184C284.615 56.624 285.493 56.176 286.463 55.84C287.434 55.504 288.423 55.3173 289.431 55.28C290.477 55.2427 291.485 55.3547 292.455 55.616C293.426 55.8773 294.303 56.344 295.087 57.016C295.461 57.352 295.741 58.0613 295.927 59.144C296.151 60.1893 296.282 61.4587 296.319 62.952C296.394 64.4453 296.413 66.088 296.375 67.88C296.375 69.6347 296.357 71.4267 296.319 73.256C296.282 75.048 296.245 76.784 296.207 78.464C296.17 80.144 296.189 81.6187 296.263 82.888C294.957 83.0747 293.781 83.1493 292.735 83.112C291.727 83.112 290.57 83.112 289.263 83.112C289.189 82.2533 289.151 81.2827 289.151 80.2C289.151 79.1173 289.151 77.9973 289.151 76.84C289.189 75.6827 289.189 74.5253 289.151 73.368C289.151 72.2107 289.114 71.128 289.039 70.12C289.002 69.672 288.965 69.1867 288.927 68.664C288.89 68.104 288.815 67.5627 288.703 67.04C288.629 66.5173 288.498 66.0507 288.311 65.64C288.162 65.2293 287.938 64.912 287.639 64.688C287.602 64.6507 287.565 64.632 287.527 64.632C287.49 64.632 287.453 64.6133 287.415 64.576C287.191 64.464 286.911 64.3707 286.575 64.296C286.239 64.2213 285.866 64.184 285.455 64.184C285.082 64.184 284.69 64.2587 284.279 64.408C283.906 64.52 283.551 64.7067 283.215 64.968C283.253 66.424 283.253 67.9733 283.215 69.616C283.178 71.2213 283.141 72.8267 283.103 74.432C283.066 76 283.029 77.5307 282.991 79.024C282.991 80.48 283.029 81.768 283.103 82.888C281.797 83.0747 280.621 83.1493 279.575 83.112C278.567 83.112 277.41 83.112 276.103 83.112C276.029 82.2533 275.991 81.2827 275.991 80.2C275.991 79.1173 275.991 77.9973 275.991 76.84C276.029 75.6827 276.029 74.5253 275.991 73.368C275.991 72.2107 275.954 71.128 275.879 70.12C275.842 69.672 275.805 69.1867 275.767 68.664C275.73 68.104 275.655 67.5627 275.543 67.04C275.469 66.5173 275.338 66.0507 275.151 65.64C275.002 65.2293 274.778 64.912 274.479 64.688C274.442 64.6507 274.405 64.632 274.367 64.632C274.33 64.632 274.293 64.6133 274.255 64.576C273.957 64.4267 273.509 64.3147 272.911 64.24C272.351 64.128 271.791 64.1653 271.231 64.352C270.671 64.5013 270.167 64.8373 269.719 65.36C269.271 65.8453 269.01 66.592 268.935 67.6C268.861 68.9067 268.842 70.1947 268.879 71.464C268.917 72.696 268.954 73.9467 268.991 75.216C269.066 76.448 269.103 77.68 269.103 78.912C269.103 80.144 269.029 81.376 268.879 82.608V82.832C268.245 83.0187 267.685 83.1307 267.199 83.168C266.751 83.2053 266.285 83.2053 265.799 83.168C265.314 83.168 264.773 83.1493 264.175 83.112C263.578 83.0747 262.831 83.0933 261.935 83.168C261.935 78.576 261.879 73.984 261.767 69.392C261.693 64.8 261.73 60.04 261.879 55.112C262.327 55.1493 262.701 55.1867 262.999 55.224C263.298 55.224 263.578 55.224 263.839 55.224C264.101 55.224 264.381 55.224 264.679 55.224C264.978 55.1867 265.351 55.1493 265.799 55.112C265.949 55.112 266.21 55.0933 266.583 55.056C266.957 54.9813 267.33 54.9253 267.703 54.888C268.077 54.8507 268.413 54.8507 268.711 54.888C269.01 54.888 269.159 54.944 269.159 55.056C269.234 55.6907 269.253 56.2133 269.215 56.624ZM308.673 69.112C307.851 69.0747 307.254 69.0187 306.881 68.944V69.952C306.918 71.072 306.955 71.9867 306.993 72.696C307.067 73.4053 307.31 74.096 307.721 74.768C308.169 75.6267 308.803 76.2613 309.625 76.672C310.446 77.0827 311.249 77.2133 312.033 77.064C312.817 76.9147 313.47 76.4667 313.993 75.72C314.553 74.936 314.795 73.7787 314.721 72.248C315.094 72.2853 315.598 72.304 316.233 72.304C316.867 72.2667 317.521 72.2293 318.193 72.192C318.902 72.1547 319.574 72.1547 320.209 72.192C320.843 72.192 321.366 72.248 321.777 72.36C321.702 73.3307 321.627 74.2827 321.553 75.216C321.478 76.1493 321.385 77.0267 321.273 77.848C321.161 78.632 321.011 79.3227 320.825 79.92C320.675 80.48 320.47 80.872 320.209 81.096C319.574 81.992 318.753 82.6267 317.745 83C316.737 83.3733 315.635 83.5973 314.441 83.672C313.246 83.7467 312.014 83.7467 310.745 83.672C309.513 83.5973 308.374 83.56 307.329 83.56C306.283 83.4107 305.313 83.0747 304.417 82.552C303.409 81.8427 302.569 80.928 301.897 79.808C301.225 78.6507 300.683 77.4 300.273 76.056C299.862 74.6747 299.582 73.2187 299.433 71.688C299.283 70.1573 299.246 68.6267 299.321 67.096C299.433 65.7147 299.545 64.3893 299.657 63.12C299.806 61.8133 300.105 60.544 300.553 59.312C301.038 58.2293 301.785 57.3147 302.793 56.568C303.801 55.784 304.939 55.2053 306.209 54.832C307.478 54.4213 308.822 54.1973 310.241 54.16C311.659 54.1227 313.041 54.272 314.385 54.608C316.102 54.9067 317.483 55.504 318.529 56.4C319.574 57.296 320.358 58.3787 320.881 59.648C321.441 60.9173 321.777 62.3173 321.889 63.848C322.001 65.3787 322.001 66.928 321.889 68.496C321.627 68.5707 321.123 68.6453 320.377 68.72C319.667 68.7947 318.809 68.8693 317.801 68.944C316.83 69.0187 315.785 69.0747 314.665 69.112C313.545 69.1493 312.462 69.168 311.417 69.168C310.409 69.168 309.494 69.1493 308.673 69.112ZM315.225 61.776C314.851 61.104 314.329 60.6 313.657 60.264C313.358 60.0773 313.059 59.9467 312.761 59.872C312.462 59.76 312.107 59.704 311.697 59.704C310.801 59.704 310.073 59.7973 309.513 59.984C308.953 60.1707 308.505 60.432 308.169 60.768C307.833 61.104 307.571 61.496 307.385 61.944C307.235 62.392 307.123 62.8587 307.049 63.344C306.974 63.7547 306.937 64.0533 306.937 64.24C306.974 64.3893 307.161 64.5013 307.497 64.576C307.833 64.6133 308.355 64.632 309.065 64.632C309.811 64.5947 310.894 64.576 312.313 64.576C313.283 64.576 314.011 64.5947 314.497 64.632C314.982 64.6693 315.318 64.688 315.505 64.688C315.729 64.6507 315.841 64.5947 315.841 64.52C315.841 64.408 315.841 64.2027 315.841 63.904C315.841 63.1573 315.635 62.448 315.225 61.776ZM343.609 44.752C344.243 44.7893 344.878 44.7707 345.513 44.696V52.2C345.513 52.6853 345.513 53.1893 345.513 53.712C345.55 54.2347 345.569 54.776 345.569 55.336C346.726 55.2987 347.939 55.2427 349.209 55.168C350.515 55.0933 352.121 55 354.025 54.888C354.286 55.1867 354.435 55.6347 354.473 56.232C354.51 56.792 354.51 57.408 354.473 58.08C354.435 58.752 354.379 59.4427 354.305 60.152C354.267 60.824 354.286 61.4027 354.361 61.888H345.681C345.681 63.904 345.681 65.8827 345.681 67.824C345.681 69.728 345.699 71.52 345.737 73.2C346.11 73.7227 346.651 74.1333 347.361 74.432C348.07 74.7307 348.835 74.9733 349.657 75.16C350.478 75.3093 351.299 75.4027 352.121 75.44C352.979 75.4773 353.726 75.4773 354.361 75.44C354.435 75.9627 354.51 76.5413 354.585 77.176C354.659 77.8107 354.715 78.464 354.753 79.136C354.79 79.808 354.771 80.48 354.697 81.152C354.659 81.824 354.547 82.44 354.361 83C352.867 83.0747 351.318 83.0747 349.713 83C348.107 82.888 346.595 82.664 345.177 82.328C343.758 81.992 342.489 81.488 341.369 80.816C340.286 80.144 339.502 79.2293 339.017 78.072C338.531 75.1973 338.251 72.4907 338.177 69.952C338.102 67.376 338.083 64.7253 338.121 62C337.523 62.0373 336.889 62.056 336.217 62.056C335.582 62.056 334.873 62.056 334.089 62.056L334.257 55.224C335.003 55.2613 335.694 55.28 336.329 55.28C337.001 55.28 337.635 55.28 338.233 55.28C338.233 54.4587 338.214 53.5813 338.177 52.648C338.139 51.6773 338.121 50.7067 338.121 49.736C338.121 48.7653 338.121 47.832 338.121 46.936C338.158 46.04 338.214 45.2373 338.289 44.528C338.774 44.4533 339.297 44.4347 339.857 44.472C340.454 44.5093 341.07 44.5653 341.705 44.64C342.339 44.6773 342.974 44.7147 343.609 44.752ZM357.145 59.144C357.369 58.4347 357.537 57.8747 357.649 57.464C357.91 56.904 358.321 56.4187 358.881 56.008C359.478 55.5973 360.15 55.2613 360.897 55C361.681 54.7013 362.502 54.496 363.361 54.384C364.257 54.272 365.153 54.216 366.049 54.216C366.796 54.2907 367.505 54.3093 368.177 54.272C368.886 54.1973 369.633 54.1973 370.417 54.272C371.612 54.3467 372.75 54.5893 373.833 55C374.916 55.3733 375.849 55.9333 376.633 56.68C377.156 57.016 377.566 57.5573 377.865 58.304C378.164 59.0507 378.388 59.928 378.537 60.936C378.686 61.9067 378.78 62.9893 378.817 64.184C378.854 65.3413 378.892 66.536 378.929 67.768C378.892 68.8507 378.836 70.0827 378.761 71.464C378.724 72.8453 378.63 74.1707 378.481 75.44C378.369 76.7093 378.201 77.848 377.977 78.856C377.79 79.864 377.51 80.5547 377.137 80.928C376.502 81.824 375.662 82.4587 374.617 82.832C373.609 83.2053 372.508 83.4293 371.313 83.504C370.118 83.616 368.886 83.616 367.617 83.504C366.348 83.4293 365.19 83.392 364.145 83.392C362.241 83.056 360.636 82.2347 359.329 80.928C358.321 80.032 357.63 78.912 357.257 77.568C356.884 76.224 356.66 74.824 356.585 73.368C356.51 71.8747 356.492 70.3813 356.529 68.888C356.604 67.3947 356.585 66.032 356.473 64.8C356.473 64.128 356.492 63.4747 356.529 62.84C356.566 62.168 356.641 61.4773 356.753 60.768C356.79 60.3573 356.921 59.816 357.145 59.144ZM366.553 62.84C365.769 63.064 365.134 63.4747 364.649 64.072C364.425 64.2213 364.257 64.5947 364.145 65.192C363.996 66.3867 363.921 67.5813 363.921 68.776C363.921 69.9333 363.884 71.1653 363.809 72.472C363.772 73.3307 363.996 74.0027 364.481 74.488C364.966 74.936 365.545 75.2533 366.217 75.44C366.926 75.5893 367.654 75.6267 368.401 75.552C369.148 75.44 369.764 75.2533 370.249 74.992C370.884 74.6933 371.313 74.0773 371.537 73.144C371.686 71.9493 371.798 70.7547 371.873 69.56C371.985 68.328 371.929 67.1707 371.705 66.088C371.518 64.7813 370.977 63.8293 370.081 63.232C369.185 62.6347 368.009 62.504 366.553 62.84ZM407.961 45.984C407.999 45.5733 408.036 44.9947 408.073 44.248V43.632C408.073 43.5947 408.316 43.5573 408.801 43.52C409.324 43.4453 409.94 43.408 410.649 43.408C411.396 43.3707 412.18 43.3707 413.001 43.408C413.823 43.408 414.532 43.464 415.129 43.576V47.272C415.129 53.5067 415.223 59.6667 415.409 65.752C415.596 71.8373 415.615 77.568 415.465 82.944C414.308 82.944 413.039 82.9627 411.657 83C410.276 83.0747 409.025 83.0373 407.905 82.888C407.868 82.8133 407.849 82.6827 407.849 82.496C407.849 82.1227 407.831 81.824 407.793 81.6C407.793 81.376 407.793 81.0587 407.793 80.648C407.719 80.4613 407.625 80.3307 407.513 80.256C407.439 80.144 407.345 80.2 407.233 80.424C406.673 81.544 405.927 82.272 404.993 82.608C404.06 82.9067 403.071 82.9813 402.025 82.832C399.897 82.6827 398.217 82.1413 396.985 81.208C395.753 80.2373 394.82 79.024 394.185 77.568C393.588 76.0747 393.177 74.4133 392.953 72.584C392.767 70.7547 392.655 68.9067 392.617 67.04C392.617 65.7333 392.692 64.464 392.841 63.232C393.028 62 393.289 60.88 393.625 59.872C393.999 58.8267 394.465 57.9493 395.025 57.24C395.623 56.4933 396.332 55.9707 397.153 55.672C398.161 55.2987 399.263 55.0747 400.457 55C401.689 54.888 402.847 54.888 403.929 55C405.012 55.0747 405.927 55.2427 406.673 55.504C407.42 55.7653 407.831 56.064 407.905 56.4C407.868 54.6453 407.849 53.2267 407.849 52.144C407.849 51.0613 407.849 50.2027 407.849 49.568C407.849 48.896 407.849 48.392 407.849 48.056C407.887 47.6827 407.905 47.3467 407.905 47.048C407.943 46.712 407.961 46.3573 407.961 45.984ZM401.017 62.392C400.121 63.064 399.58 64.0533 399.393 65.36C399.207 65.8827 399.095 66.424 399.057 66.984C399.02 67.544 399.001 68.0853 399.001 68.608C399.001 69.5413 399.113 70.456 399.337 71.352C399.561 72.2107 399.897 72.9947 400.345 73.704C400.793 74.376 401.335 74.9173 401.969 75.328C402.604 75.7387 403.313 75.944 404.097 75.944C405.031 75.944 405.759 75.7387 406.281 75.328C406.841 74.9173 407.252 74.3573 407.513 73.648C407.812 72.9387 407.98 72.0987 408.017 71.128C408.092 70.12 408.129 69.0187 408.129 67.824C408.129 66.368 408.092 65.2293 408.017 64.408C407.98 63.5493 407.849 62.896 407.625 62.448C407.401 62 407.047 61.72 406.561 61.608C406.113 61.4587 405.497 61.384 404.713 61.384C403.183 61.384 401.951 61.72 401.017 62.392ZM427.891 69.112C427.07 69.0747 426.473 69.0187 426.099 68.944V69.952C426.137 71.072 426.174 71.9867 426.211 72.696C426.286 73.4053 426.529 74.096 426.939 74.768C427.387 75.6267 428.022 76.2613 428.843 76.672C429.665 77.0827 430.467 77.2133 431.251 77.064C432.035 76.9147 432.689 76.4667 433.211 75.72C433.771 74.936 434.014 73.7787 433.939 72.248C434.313 72.2853 434.817 72.304 435.451 72.304C436.086 72.2667 436.739 72.2293 437.411 72.192C438.121 72.1547 438.793 72.1547 439.427 72.192C440.062 72.192 440.585 72.248 440.995 72.36C440.921 73.3307 440.846 74.2827 440.771 75.216C440.697 76.1493 440.603 77.0267 440.491 77.848C440.379 78.632 440.23 79.3227 440.043 79.92C439.894 80.48 439.689 80.872 439.427 81.096C438.793 81.992 437.971 82.6267 436.963 83C435.955 83.3733 434.854 83.5973 433.659 83.672C432.465 83.7467 431.233 83.7467 429.963 83.672C428.731 83.5973 427.593 83.56 426.547 83.56C425.502 83.4107 424.531 83.0747 423.635 82.552C422.627 81.8427 421.787 80.928 421.115 79.808C420.443 78.6507 419.902 77.4 419.491 76.056C419.081 74.6747 418.801 73.2187 418.651 71.688C418.502 70.1573 418.465 68.6267 418.539 67.096C418.651 65.7147 418.763 64.3893 418.875 63.12C419.025 61.8133 419.323 60.544 419.771 59.312C420.257 58.2293 421.003 57.3147 422.011 56.568C423.019 55.784 424.158 55.2053 425.427 54.832C426.697 54.4213 428.041 54.1973 429.459 54.16C430.878 54.1227 432.259 54.272 433.603 54.608C435.321 54.9067 436.702 55.504 437.747 56.4C438.793 57.296 439.577 58.3787 440.099 59.648C440.659 60.9173 440.995 62.3173 441.107 63.848C441.219 65.3787 441.219 66.928 441.107 68.496C440.846 68.5707 440.342 68.6453 439.595 68.72C438.886 68.7947 438.027 68.8693 437.019 68.944C436.049 69.0187 435.003 69.0747 433.883 69.112C432.763 69.1493 431.681 69.168 430.635 69.168C429.627 69.168 428.713 69.1493 427.891 69.112ZM434.443 61.776C434.07 61.104 433.547 60.6 432.875 60.264C432.577 60.0773 432.278 59.9467 431.979 59.872C431.681 59.76 431.326 59.704 430.915 59.704C430.019 59.704 429.291 59.7973 428.731 59.984C428.171 60.1707 427.723 60.432 427.387 60.768C427.051 61.104 426.79 61.496 426.603 61.944C426.454 62.392 426.342 62.8587 426.267 63.344C426.193 63.7547 426.155 64.0533 426.155 64.24C426.193 64.3893 426.379 64.5013 426.715 64.576C427.051 64.6133 427.574 64.632 428.283 64.632C429.03 64.5947 430.113 64.576 431.531 64.576C432.502 64.576 433.23 64.5947 433.715 64.632C434.201 64.6693 434.537 64.688 434.723 64.688C434.947 64.6507 435.059 64.5947 435.059 64.52C435.059 64.408 435.059 64.2027 435.059 63.904C435.059 63.1573 434.854 62.448 434.443 61.776ZM465.318 55.112C465.99 55.0747 466.401 55.0933 466.55 55.168C466.55 56.5867 466.513 57.8933 466.438 59.088C466.363 60.2453 466.401 61.44 466.55 62.672C464.646 64.7253 462.574 66.7973 460.334 68.888C458.094 70.9413 456.022 73.032 454.118 75.16C455.985 75.0107 457.963 74.992 460.054 75.104C462.182 75.216 464.254 75.1227 466.27 74.824C466.27 76.0187 466.289 77.288 466.326 78.632C466.363 79.976 466.382 81.3013 466.382 82.608C464.665 82.6453 462.835 82.6827 460.894 82.72C458.99 82.7573 457.049 82.7947 455.07 82.832C453.091 82.8693 451.131 82.9067 449.19 82.944C447.249 82.944 445.382 82.944 443.59 82.944C443.627 81.8613 443.627 80.984 443.59 80.312C443.59 79.64 443.571 79.0613 443.534 78.576C443.497 78.0907 443.459 77.6427 443.422 77.232C443.422 76.8213 443.441 76.336 443.478 75.776C444.374 74.6187 445.363 73.4987 446.446 72.416C447.529 71.296 448.649 70.2133 449.806 69.168C450.963 68.0853 452.102 67.0213 453.222 65.976C454.342 64.8933 455.369 63.792 456.302 62.672C455.331 62.7093 454.286 62.7467 453.166 62.784C452.046 62.8213 450.926 62.8773 449.806 62.952C448.686 63.0267 447.603 63.12 446.558 63.232C445.55 63.344 444.635 63.456 443.814 63.568C443.739 62.56 443.702 61.7013 443.702 60.992C443.702 60.2827 443.702 59.648 443.702 59.088C443.739 58.4907 443.777 57.8933 443.814 57.296C443.851 56.6987 443.851 55.9893 443.814 55.168C446.838 55.168 449.675 55.168 452.326 55.168C455.014 55.1307 457.366 55.112 459.382 55.112C459.681 55.1867 460.185 55.224 460.894 55.224C461.641 55.1867 462.406 55.168 463.19 55.168C463.974 55.1307 464.683 55.112 465.318 55.112ZM478.313 69.112C477.492 69.0747 476.894 69.0187 476.521 68.944V69.952C476.558 71.072 476.596 71.9867 476.633 72.696C476.708 73.4053 476.95 74.096 477.361 74.768C477.809 75.6267 478.444 76.2613 479.265 76.672C480.086 77.0827 480.889 77.2133 481.673 77.064C482.457 76.9147 483.11 76.4667 483.633 75.72C484.193 74.936 484.436 73.7787 484.361 72.248C484.734 72.2853 485.238 72.304 485.873 72.304C486.508 72.2667 487.161 72.2293 487.833 72.192C488.542 72.1547 489.214 72.1547 489.849 72.192C490.484 72.192 491.006 72.248 491.417 72.36C491.342 73.3307 491.268 74.2827 491.193 75.216C491.118 76.1493 491.025 77.0267 490.913 77.848C490.801 78.632 490.652 79.3227 490.465 79.92C490.316 80.48 490.11 80.872 489.849 81.096C489.214 81.992 488.393 82.6267 487.385 83C486.377 83.3733 485.276 83.5973 484.081 83.672C482.886 83.7467 481.654 83.7467 480.385 83.672C479.153 83.5973 478.014 83.56 476.969 83.56C475.924 83.4107 474.953 83.0747 474.057 82.552C473.049 81.8427 472.209 80.928 471.537 79.808C470.865 78.6507 470.324 77.4 469.913 76.056C469.502 74.6747 469.222 73.2187 469.073 71.688C468.924 70.1573 468.886 68.6267 468.961 67.096C469.073 65.7147 469.185 64.3893 469.297 63.12C469.446 61.8133 469.745 60.544 470.193 59.312C470.678 58.2293 471.425 57.3147 472.433 56.568C473.441 55.784 474.58 55.2053 475.849 54.832C477.118 54.4213 478.462 54.1973 479.881 54.16C481.3 54.1227 482.681 54.272 484.025 54.608C485.742 54.9067 487.124 55.504 488.169 56.4C489.214 57.296 489.998 58.3787 490.521 59.648C491.081 60.9173 491.417 62.3173 491.529 63.848C491.641 65.3787 491.641 66.928 491.529 68.496C491.268 68.5707 490.764 68.6453 490.017 68.72C489.308 68.7947 488.449 68.8693 487.441 68.944C486.47 69.0187 485.425 69.0747 484.305 69.112C483.185 69.1493 482.102 69.168 481.057 69.168C480.049 69.168 479.134 69.1493 478.313 69.112ZM484.865 61.776C484.492 61.104 483.969 60.6 483.297 60.264C482.998 60.0773 482.7 59.9467 482.401 59.872C482.102 59.76 481.748 59.704 481.337 59.704C480.441 59.704 479.713 59.7973 479.153 59.984C478.593 60.1707 478.145 60.432 477.809 60.768C477.473 61.104 477.212 61.496 477.025 61.944C476.876 62.392 476.764 62.8587 476.689 63.344C476.614 63.7547 476.577 64.0533 476.577 64.24C476.614 64.3893 476.801 64.5013 477.137 64.576C477.473 64.6133 477.996 64.632 478.705 64.632C479.452 64.5947 480.534 64.576 481.953 64.576C482.924 64.576 483.652 64.5947 484.137 64.632C484.622 64.6693 484.958 64.688 485.145 64.688C485.369 64.6507 485.481 64.5947 485.481 64.52C485.481 64.408 485.481 64.2027 485.481 63.904C485.481 63.1573 485.276 62.448 484.865 61.776ZM502.02 56.624C502.02 57.0347 502.039 57.5013 502.076 58.024C502.263 57.912 502.487 57.7813 502.748 57.632C503.047 57.4827 503.289 57.3333 503.476 57.184C504.26 56.624 505.137 56.176 506.108 55.84C507.079 55.504 508.068 55.3173 509.076 55.28C510.121 55.2427 511.129 55.3547 512.1 55.616C513.071 55.8773 513.948 56.344 514.732 57.016C514.919 57.2027 515.105 57.52 515.292 57.968C515.479 57.856 515.703 57.744 515.964 57.632C516.225 57.4827 516.449 57.3333 516.636 57.184C517.42 56.624 518.297 56.176 519.268 55.84C520.239 55.504 521.228 55.3173 522.236 55.28C523.281 55.2427 524.289 55.3547 525.26 55.616C526.231 55.8773 527.108 56.344 527.892 57.016C528.265 57.352 528.545 58.0613 528.732 59.144C528.956 60.1893 529.087 61.4587 529.124 62.952C529.199 64.4453 529.217 66.088 529.18 67.88C529.18 69.6347 529.161 71.4267 529.124 73.256C529.087 75.048 529.049 76.784 529.012 78.464C528.975 80.144 528.993 81.6187 529.068 82.888C527.761 83.0747 526.585 83.1493 525.54 83.112C524.532 83.112 523.375 83.112 522.068 83.112C521.993 82.2533 521.956 81.2827 521.956 80.2C521.956 79.1173 521.956 77.9973 521.956 76.84C521.993 75.6827 521.993 74.5253 521.956 73.368C521.956 72.2107 521.919 71.128 521.844 70.12C521.807 69.672 521.769 69.1867 521.732 68.664C521.695 68.104 521.62 67.5627 521.508 67.04C521.433 66.5173 521.303 66.0507 521.116 65.64C520.967 65.2293 520.743 64.912 520.444 64.688C520.407 64.6507 520.369 64.632 520.332 64.632C520.295 64.632 520.257 64.6133 520.22 64.576C519.996 64.464 519.716 64.3707 519.38 64.296C519.044 64.2213 518.671 64.184 518.26 64.184C517.887 64.184 517.495 64.2587 517.084 64.408C516.711 64.52 516.356 64.7067 516.02 64.968C516.057 66.424 516.057 67.9733 516.02 69.616C515.983 71.2213 515.945 72.8267 515.908 74.432C515.871 76 515.833 77.5307 515.796 79.024C515.796 80.48 515.833 81.768 515.908 82.888C514.601 83.0747 513.425 83.1493 512.38 83.112C511.372 83.112 510.215 83.112 508.908 83.112C508.833 82.2533 508.796 81.2827 508.796 80.2C508.796 79.1173 508.796 77.9973 508.796 76.84C508.833 75.6827 508.833 74.5253 508.796 73.368C508.796 72.2107 508.759 71.128 508.684 70.12C508.647 69.672 508.609 69.1867 508.572 68.664C508.535 68.104 508.46 67.5627 508.348 67.04C508.273 66.5173 508.143 66.0507 507.956 65.64C507.807 65.2293 507.583 64.912 507.284 64.688C507.247 64.6507 507.209 64.632 507.172 64.632C507.135 64.632 507.097 64.6133 507.06 64.576C506.761 64.4267 506.313 64.3147 505.716 64.24C505.156 64.128 504.596 64.1653 504.036 64.352C503.476 64.5013 502.972 64.8373 502.524 65.36C502.076 65.8453 501.815 66.592 501.74 67.6C501.665 68.9067 501.647 70.1947 501.684 71.464C501.721 72.696 501.759 73.9467 501.796 75.216C501.871 76.448 501.908 77.68 501.908 78.912C501.908 80.144 501.833 81.376 501.684 82.608V82.832C501.049 83.0187 500.489 83.1307 500.004 83.168C499.556 83.2053 499.089 83.2053 498.604 83.168C498.119 83.168 497.577 83.1493 496.98 83.112C496.383 83.0747 495.636 83.0933 494.74 83.168C494.74 78.576 494.684 73.984 494.572 69.392C494.497 64.8 494.535 60.04 494.684 55.112C495.132 55.1493 495.505 55.1867 495.804 55.224C496.103 55.224 496.383 55.224 496.644 55.224C496.905 55.224 497.185 55.224 497.484 55.224C497.783 55.1867 498.156 55.1493 498.604 55.112C498.753 55.112 499.015 55.0933 499.388 55.056C499.761 54.9813 500.135 54.9253 500.508 54.888C500.881 54.8507 501.217 54.8507 501.516 54.888C501.815 54.888 501.964 54.944 501.964 55.056C502.039 55.6907 502.057 56.2133 502.02 56.624ZM539.517 43.52C540.04 43.5573 540.301 43.5947 540.301 43.632V44.248C540.339 44.9947 540.357 45.5733 540.357 45.984C540.395 46.3573 540.413 46.712 540.413 47.048C540.451 47.3467 540.469 47.6827 540.469 48.056C540.507 48.392 540.525 48.896 540.525 49.568C540.525 50.2027 540.525 51.0613 540.525 52.144C540.525 53.2267 540.507 54.6453 540.469 56.4C540.544 56.064 540.955 55.7653 541.701 55.504C542.448 55.2427 543.363 55.0747 544.445 55C545.528 54.888 546.667 54.888 547.861 55C549.093 55.0747 550.213 55.2987 551.221 55.672C552.043 55.9707 552.733 56.4933 553.293 57.24C553.891 57.9493 554.357 58.8267 554.693 59.872C555.067 60.88 555.328 62 555.477 63.232C555.664 64.464 555.757 65.7333 555.757 67.04C555.683 68.9067 555.552 70.7547 555.365 72.584C555.179 74.4133 554.768 76.0747 554.133 77.568C553.536 79.024 552.621 80.2373 551.389 81.208C550.157 82.1413 548.477 82.6827 546.349 82.832C545.304 82.9813 544.315 82.9067 543.381 82.608C542.448 82.272 541.701 81.544 541.141 80.424C541.029 80.2 540.917 80.144 540.805 80.256C540.731 80.3307 540.656 80.4613 540.581 80.648C540.581 81.0587 540.563 81.376 540.525 81.6C540.525 81.824 540.525 82.1227 540.525 82.496C540.525 82.6827 540.507 82.8133 540.469 82.888C539.349 83.0373 538.099 83.0747 536.717 83C535.336 82.9627 534.067 82.944 532.909 82.944C532.835 80.256 532.797 77.4747 532.797 74.6C532.835 71.688 532.872 68.7387 532.909 65.752C532.984 62.728 533.059 59.6667 533.133 56.568C533.208 53.4693 533.245 50.3707 533.245 47.272V43.576C533.843 43.464 534.552 43.408 535.373 43.408C536.195 43.3707 536.96 43.3707 537.669 43.408C538.416 43.408 539.032 43.4453 539.517 43.52ZM549.317 66.984C549.28 66.424 549.168 65.8827 548.981 65.36C548.795 64.0533 548.235 63.064 547.301 62.392C546.405 61.72 545.192 61.384 543.661 61.384C542.877 61.384 542.243 61.4587 541.757 61.608C541.309 61.72 540.973 62 540.749 62.448C540.525 62.896 540.376 63.5493 540.301 64.408C540.264 65.2293 540.245 66.368 540.245 67.824C540.245 69.0187 540.264 70.12 540.301 71.128C540.376 72.0987 540.544 72.9387 540.805 73.648C541.104 74.3573 541.515 74.9173 542.037 75.328C542.56 75.7387 543.307 75.944 544.277 75.944C545.061 75.944 545.771 75.7387 546.405 75.328C547.04 74.9173 547.581 74.376 548.029 73.704C548.477 72.9947 548.813 72.2107 549.037 71.352C549.261 70.456 549.373 69.5413 549.373 68.608C549.373 68.0853 549.355 67.544 549.317 66.984ZM578.318 54.944C579.251 54.9813 580.315 55.0373 581.51 55.112C581.547 55.336 581.566 55.56 581.566 55.784C581.603 56.008 581.622 56.232 581.622 56.456V57.016C581.51 61.048 581.528 65.024 581.678 68.944C581.827 72.8267 581.771 76.7653 581.51 80.76C581.51 81.2453 581.491 81.7307 581.454 82.216C581.454 82.7013 581.23 82.9813 580.782 83.056H580.11C579.512 83.056 578.896 83.0373 578.262 83C577.664 82.9253 577.067 82.888 576.47 82.888C576.059 82.888 575.648 82.9253 575.238 83C574.864 83.0373 574.472 83.056 574.062 83.056C573.8 82.9813 573.614 82.832 573.502 82.608C573.427 82.384 573.39 82.1227 573.39 81.824C573.39 81.4133 573.427 81.0773 573.502 80.816C573.576 80.5547 573.614 80.2373 573.614 79.864C572.718 80.76 571.579 81.5253 570.198 82.16C568.854 82.7947 567.528 83.112 566.222 83.112C564.766 83.112 563.515 82.608 562.47 81.6C561.462 80.592 560.622 79.3413 559.95 77.848C559.278 76.3547 558.774 74.7307 558.438 72.976C558.139 71.2213 557.99 69.5973 557.99 68.104C557.99 66.2373 558.232 64.52 558.718 62.952C559.203 61.384 559.856 60.04 560.678 58.92C561.536 57.7627 562.544 56.8667 563.702 56.232C564.859 55.56 566.091 55.2053 567.398 55.168C568.07 55.168 568.686 55.1867 569.246 55.224C569.843 55.224 570.384 55.3173 570.87 55.504C571.355 55.6533 571.784 55.9147 572.158 56.288C572.531 56.624 572.848 57.1093 573.11 57.744C573.072 57.1467 573.091 56.6427 573.166 56.232C573.278 55.784 573.334 55.336 573.334 54.888C573.334 54.8507 573.446 54.832 573.67 54.832C573.931 54.7947 574.211 54.7947 574.51 54.832C574.808 54.832 575.107 54.832 575.406 54.832C575.704 54.832 575.91 54.832 576.022 54.832C576.656 54.8693 577.422 54.9067 578.318 54.944ZM566.782 63.792C565.923 64.5013 565.4 65.3227 565.214 66.256C565.064 66.7413 564.971 67.2453 564.934 67.768C564.896 68.2533 564.878 68.7387 564.878 69.224C564.878 70.904 565.307 72.3413 566.166 73.536C567.062 74.6933 568.294 75.272 569.862 75.272C570.795 75.272 571.486 75.1227 571.934 74.824C572.419 74.488 572.755 74.04 572.942 73.48C573.166 72.8827 573.278 72.1733 573.278 71.352C573.315 70.4933 573.334 69.5413 573.334 68.496C573.334 67.1893 573.315 66.1627 573.278 65.416C573.278 64.632 573.184 64.0347 572.998 63.624C572.848 63.2133 572.568 62.952 572.158 62.84C571.784 62.728 571.206 62.672 570.422 62.672C568.891 62.672 567.678 63.0453 566.782 63.792Z" fill="#063684"/>
<path d="M592.071 83H591.959L585.631 82.944H585.463C585.388 82.5333 585.332 82.0107 585.295 81.376C585.295 80.7413 585.295 80.1067 585.295 79.472C585.332 78.8373 585.351 78.24 585.351 77.68C585.388 77.12 585.407 76.7093 585.407 76.448C585.78 76.2987 586.303 76.1867 586.975 76.112C587.684 76.0373 588.393 76 589.103 76C589.812 76 590.465 76.0373 591.063 76.112C591.697 76.1493 592.145 76.224 592.407 76.336C592.407 76.3733 592.388 76.6907 592.351 77.288C592.313 77.848 592.276 78.5013 592.239 79.248C592.201 79.9947 592.164 80.7227 592.127 81.432C592.089 82.1413 592.071 82.6267 592.071 82.888V82.944V83ZM599.936 54.832C600.795 54.8693 601.821 54.8693 603.016 54.832H603.968V55C603.931 59.5173 603.837 64.128 603.688 68.832C603.576 73.536 603.651 78.1467 603.912 82.664C603.725 82.888 603.259 83 602.512 83C601.765 83.0373 600.944 83.0373 600.048 83C599.189 83 598.368 82.9813 597.584 82.944C596.8 82.9067 596.277 82.9253 596.016 83C596.203 80.648 596.277 78.2587 596.24 75.832C596.24 73.4053 596.203 70.9973 596.128 68.608C596.053 66.2187 596.016 63.8667 596.016 61.552C596.016 59.2 596.128 56.9227 596.352 54.72V54.664C596.501 54.6267 596.744 54.6267 597.08 54.664C597.453 54.7013 597.733 54.72 597.92 54.72C598.405 54.7573 599.077 54.7947 599.936 54.832ZM596.184 46.992C596.109 45.7973 596.091 44.3413 596.128 42.624L603.744 42.792C603.744 43.016 603.744 43.4267 603.744 44.024C603.781 44.584 603.8 45.2187 603.8 45.928C603.837 46.6 603.856 47.3093 603.856 48.056C603.893 48.7653 603.912 49.4 603.912 49.96C603.763 50.184 603.408 50.3333 602.848 50.408C602.325 50.4827 601.691 50.52 600.944 50.52C600.235 50.4827 599.469 50.4453 598.648 50.408C597.827 50.3333 597.061 50.3147 596.352 50.352C596.352 49.2693 596.296 48.1493 596.184 46.992ZM607.778 59.144C608.002 58.4347 608.17 57.8747 608.282 57.464C608.543 56.904 608.954 56.4187 609.514 56.008C610.111 55.5973 610.783 55.2613 611.53 55C612.314 54.7013 613.135 54.496 613.994 54.384C614.89 54.272 615.786 54.216 616.682 54.216C617.428 54.2907 618.138 54.3093 618.81 54.272C619.519 54.1973 620.266 54.1973 621.05 54.272C622.244 54.3467 623.383 54.5893 624.466 55C625.548 55.3733 626.482 55.9333 627.266 56.68C627.788 57.016 628.199 57.5573 628.498 58.304C628.796 59.0507 629.02 59.928 629.17 60.936C629.319 61.9067 629.412 62.9893 629.45 64.184C629.487 65.3413 629.524 66.536 629.562 67.768C629.524 68.8507 629.468 70.0827 629.394 71.464C629.356 72.8453 629.263 74.1707 629.114 75.44C629.002 76.7093 628.834 77.848 628.61 78.856C628.423 79.864 628.143 80.5547 627.77 80.928C627.135 81.824 626.295 82.4587 625.25 82.832C624.242 83.2053 623.14 83.4293 621.946 83.504C620.751 83.616 619.519 83.616 618.25 83.504C616.98 83.4293 615.823 83.392 614.778 83.392C612.874 83.056 611.268 82.2347 609.962 80.928C608.954 80.032 608.263 78.912 607.89 77.568C607.516 76.224 607.292 74.824 607.218 73.368C607.143 71.8747 607.124 70.3813 607.162 68.888C607.236 67.3947 607.218 66.032 607.106 64.8C607.106 64.128 607.124 63.4747 607.162 62.84C607.199 62.168 607.274 61.4773 607.386 60.768C607.423 60.3573 607.554 59.816 607.778 59.144ZM617.186 62.84C616.402 63.064 615.767 63.4747 615.282 64.072C615.058 64.2213 614.89 64.5947 614.778 65.192C614.628 66.3867 614.554 67.5813 614.554 68.776C614.554 69.9333 614.516 71.1653 614.442 72.472C614.404 73.3307 614.628 74.0027 615.114 74.488C615.599 74.936 616.178 75.2533 616.85 75.44C617.559 75.5893 618.287 75.6267 619.034 75.552C619.78 75.44 620.396 75.2533 620.882 74.992C621.516 74.6933 621.946 74.0773 622.17 73.144C622.319 71.9493 622.431 70.7547 622.506 69.56C622.618 68.328 622.562 67.1707 622.338 66.088C622.151 64.7813 621.61 63.8293 620.714 63.232C619.818 62.6347 618.642 62.504 617.186 62.84Z" fill="#F00ACA"/>
<g filter="url(#filter0_d_32_48)">
<circle cx="74" cy="63" r="46.5" fill="white" stroke="#063684" stroke-width="7"/>
<path d="M65.3222 52.9393L81.9234 69.5405L56.4705 86.0275L49 78.557L65.3222 52.9393Z" stroke="#063684" stroke-width="2.5" stroke-linecap="round" stroke-linejoin="round"/>
<path d="M89.9493 60.091C88.6387 61.4017 87.775 61.4118 86.4744 61.8587C86.4342 65.3134 86.4821 68.7898 82.0982 69.6484L65.0264 52.5764C65.0264 52.5764 65.0149 50.8842 66.7515 49.9994C67.363 49.7129 68.603 49.8484 69.3419 49.9687C71.0797 46.2309 73.7108 45.5999 76.6361 46.8084C78.0392 44.6859 81.504 43.782 84.0849 44.6155C86.6659 45.4489 86.6457 47.1762 88.3629 48.0197C90.0802 48.8632 91.8277 47.1157 91.8377 46.252C91.8479 45.3884 91.6964 43.7363 92.8606 44.0358C93.5714 44.2277 94.1432 44.9193 94.8322 47.7972C95.2169 49.4127 94.9933 51.8025 93.6129 53.2696C92.7657 54.1699 90.8738 54.6405 90.0098 54.909C90.0921 55.1444 91.2599 58.7804 89.9493 60.091Z" stroke="#063684" stroke-width="2.5" stroke-linecap="round" stroke-linejoin="round"/>
<path d="M90.0093 54.9084C86.5343 56.676 83.9534 55.8425 81.3926 53.2817" stroke="#063684" stroke-width="2.5" stroke-linecap="round" stroke-linejoin="round"/>
<circle cx="94.5" cy="44.5" r="4.5" fill="#F00ACA" stroke="#063684" stroke-width="2"/>
</g>
<defs>
<filter id="filter0_d_32_48" x="20" y="13" width="108" height="108" filterUnits="userSpaceOnUse" color-interpolation-filters="sRGB">
<feFlood flood-opacity="0" result="BackgroundImageFix"/>
<feColorMatrix in="SourceAlpha" type="matrix" values="0 0 0 0 0 0 0 0 0 0 0 0 0 0 0 0 0 0 127 0" result="hardAlpha"/>
<feOffset dy="4"/>
<feGaussianBlur stdDeviation="2"/>
<feComposite in2="hardAlpha" operator="out"/>
<feColorMatrix type="matrix" values="0 0 0 0 0 0 0 0 0 0 0 0 0 0 0 0 0 0 0.25 0"/>
<feBlend mode="normal" in2="BackgroundImageFix" result="effect1_dropShadow_32_48"/>
<feBlend mode="normal" in="SourceGraphic" in2="effect1_dropShadow_32_48" result="shape"/>
</filter>
</defs>
</svg>
